<svg xmlns="http://www.w3.org/2000/svg" width="256" height="256" viewBox="0 0 256 256">
<rect width="256" height="256" fill="white"/>
<path d="M 77.08,227.97 C 219.07,227.22 208.72,199.79 69.63,212.57" fill="none" stroke="black" stroke-width="10.24" stroke-linecap="round" stroke-linejoin="round"/>
<path d="M 233.80,211.08 C 144.84,210.29 0.00,225.18 53.91,188.30" fill="none" stroke="black" stroke-width="10.24" stroke-linecap="round" stroke-linejoin="round"/>
<path d="M 193.49,158.90 C 224.67,1.66 212.38,0.44 140.71,61.52" fill="none" stroke="black" stroke-width="10.24" stroke-linecap="round" stroke-linejoin="round"/>
<path d="M 254.78,217.40 C 136.17,253.16 193.19,143.58 236.32,83.12" fill="none" stroke="black" stroke-width="10.24" stroke-linecap="round" stroke-linejoin="round"/>
<path d="M 41.59,205.80 C 91.15,242.25 151.89,157.19 192.37,45.44" fill="none" stroke="black" stroke-width="10.24" stroke-linecap="round" stroke-linejoin="round"/>
<path d="M 217.82,151.51 C 151.83,176.75 216.01,238.73 219.36,135.54" fill="none" stroke="black" stroke-width="10.24" stroke-linecap="round" stroke-linejoin="round"/>
<path d="M 194.78,27.69 C 236.24,60.79 126.63,114.26 216.40,95.81" fill="none" stroke="black" stroke-width="10.24" stroke-linecap="round" stroke-linejoin="round"/>
<path d="M 173.51,1.97 C 0.00,24.54 0.00,114.02 40.63,31.76" fill="none" stroke="black" stroke-width="10.24" stroke-linecap="round" stroke-linejoin="round"/>
<path d="M 174.16,254.48 C 196.75,165.04 147.97,93.45 170.91,2.09" fill="none" stroke="black" stroke-width="10.24" stroke-linecap="round" stroke-linejoin="round"/>
<path d="M 186.30,136.47 C 152.21,92.92 212.38,16.47 177.21,254.12" fill="none" stroke="black" stroke-width="10.24" stroke-linecap="round" stroke-linejoin="round"/>
<path d="M 29.85,52.94 C 183.76,99.79 212.49,114.62 212.38,123.76" fill="none" stroke="black" stroke-width="10.24" stroke-linecap="round" stroke-linejoin="round"/>
<path d="M 130.65,21.18 C 191.91,11.33 106.04,150.10 139.22,203.27" fill="none" stroke="black" stroke-width="10.24" stroke-linecap="round" stroke-linejoin="round"/>
</svg>