<svg xmlns="http://www.w3.org/2000/svg" width="256" height="256" viewBox="0 0 256 256">
<rect width="256" height="256" fill="white"/>
<path d="M 147.36,32.39 C 26.50,32.52 77.63,19.98 46.74,86.86" fill="none" stroke="black" stroke-width="10.24" stroke-linecap="round" stroke-linejoin="round"/>
<path d="M 168.63,236.98 C 185.47,0.00 125.28,113.63 192.87,4.30" fill="none" stroke="black" stroke-width="10.24" stroke-linecap="round" stroke-linejoin="round"/>
<path d="M 15.66,194.63 C 62.67,72.39 35.17,0.00 138.98,98.59" fill="none" stroke="black" stroke-width="10.24" stroke-linecap="round" stroke-linejoin="round"/>
<path d="M 123.82,197.32 C 160.08,256.00 181.58,68.71 130.66,36.08" fill="none" stroke="black" stroke-width="10.24" stroke-linecap="round" stroke-linejoin="round"/>
<path d="M 137.33,133.19 C 102.95,24.09 26.07,35.11 61.52,32.57" fill="none" stroke="black" stroke-width="10.24" stroke-linecap="round" stroke-linejoin="round"/>
<path d="M 90.32,46.41 C 230.49,206.71 134.35,200.74 251.60,198.95" fill="none" stroke="black" stroke-width="10.24" stroke-linecap="round" stroke-linejoin="round"/>
<path d="M 133.24,46.79 C 159.51,48.18 117.98,108.27 150.04,181.48" fill="none" stroke="black" stroke-width="10.24" stroke-linecap="round" stroke-linejoin="round"/>
<path d="M 199.06,56.59 C 147.08,31.87 174.04,135.15 156.71,76.76" fill="none" stroke="black" stroke-width="10.24" stroke-linecap="round" stroke-linejoin="round"/>
<path d="M 164.75,0.00 C 231.59,63.62 178.91,237.71 256.00,210.79" fill="none" stroke="black" stroke-width="10.24" stroke-linecap="round" stroke-linejoin="round"/>
<path d="M 180.15,36.06 C 23.81,7.51 168.36,148.30 149.36,204.40" fill="none" stroke="black" stroke-width="10.24" stroke-linecap="round" stroke-linejoin="round"/>
<path d="M 223.19,213.29 C 130.12,215.74 138.32,90.06 78.79,0.00" fill="none" stroke="black" stroke-width="10.24" stroke-linecap="round" stroke-linejoin="round"/>
<path d="M 161.23,75.59 C 164.07,43.94 232.82,43.23 226.14,65.99" fill="none" stroke="black" stroke-width="10.24" stroke-linecap="round" stroke-linejoin="round"/>
</svg>