<svg xmlns="http://www.w3.org/2000/svg" width="256" height="256" viewBox="0 0 256 256">
<rect width="256" height="256" fill="white"/>
<path d="M 104.86,215.73 C 58.96,81.23 95.87,5.28 184.37,31.56" fill="none" stroke="black" stroke-width="10.24" stroke-linecap="round" stroke-linejoin="round"/>
<path d="M 228.92,69.71 C 175.72,77.94 190.22,103.84 190.63,200.00" fill="none" stroke="black" stroke-width="10.24" stroke-linecap="round" stroke-linejoin="round"/>
<path d="M 205.26,79.21 C 121.68,83.85 94.85,194.48 47.81,153.80" fill="none" stroke="black" stroke-width="10.24" stroke-linecap="round" stroke-linejoin="round"/>
<path d="M 50.15,171.83 C 114.26,155.30 138.46,94.06 131.72,0.00" fill="none" stroke="black" stroke-width="10.24" stroke-linecap="round" stroke-linejoin="round"/>
<path d="M 0.25,58.80 C 97.21,2.64 13.38,144.63 77.53,87.09" fill="none" stroke="black" stroke-width="10.24" stroke-linecap="round" stroke-linejoin="round"/>
<path d="M 204.89,220.84 C 134.01,236.12 162.71,122.01 127.13,121.72" fill="none" stroke="black" stroke-width="10.24" stroke-linecap="round" stroke-linejoin="round"/>
<path d="M 115.57,86.75 C 66.36,48.86 72.86,104.02 74.80,4.70" fill="none" stroke="black" stroke-width="10.24" stroke-linecap="round" stroke-linejoin="round"/>
<path d="M 92.60,167.54 C 94.29,92.19 27.96,113.63 46.92,157.37" fill="none" stroke="black" stroke-width="10.24" stroke-linecap="round" stroke-linejoin="round"/>
<path d="M 63.13,146.12 C 11.04,256.00 142.94,218.38 83.19,153.88" fill="none" stroke="black" stroke-width="10.24" stroke-linecap="round" stroke-linejoin="round"/>
<path d="M 97.48,149.74 C 116.23,166.01 92.02,116.08 129.54,222.95" fill="none" stroke="black" stroke-width="10.24" stroke-linecap="round" stroke-linejoin="round"/>
<path d="M 71.49,72.91 C 92.43,132.98 87.94,143.73 102.10,234.37" fill="none" stroke="black" stroke-width="10.24" stroke-linecap="round" stroke-linejoin="round"/>
<path d="M 197.75,217.40 C 135.10,237.00 122.78,56.39 128.62,45.07" fill="none" stroke="black" stroke-width="10.24" stroke-linecap="round" stroke-linejoin="round"/>
</svg>