<svg xmlns="http://www.w3.org/2000/svg" width="256" height="128" viewBox="0 0 256 128">
<rect width="256" height="128" fill="white"/>
<path d="M 34.75,117.92 C 63.02,124.94 66.10,125.07 94.99,116.56" fill="none" stroke="black" stroke-width="4.48" stroke-linecap="round" stroke-linejoin="round"/>
<path d="M 94.96,67.59 C 95.10,34.46 91.93,13.00 89.54,2.97" fill="none" stroke="black" stroke-width="4.48" stroke-linecap="round" stroke-linejoin="round"/>
<path d="M 84.87,70.74 C 91.17,74.38 93.16,75.97 93.95,77.99" fill="none" stroke="black" stroke-width="4.48" stroke-linecap="round" stroke-linejoin="round"/>
<path d="M 61.87,67.11 C 62.02,66.49 61.74,67.51 62.27,64.25" fill="none" stroke="black" stroke-width="4.48" stroke-linecap="round" stroke-linejoin="round"/>
<path d="M 86.27,63.64 C 86.35,58.60 92.34,59.41 94.48,57.83" fill="none" stroke="black" stroke-width="4.48" stroke-linecap="round" stroke-linejoin="round"/>
<path d="M 93.41,84.83 C 95.81,104.06 83.32,122.97 40.28,109.54" fill="none" stroke="black" stroke-width="4.48" stroke-linecap="round" stroke-linejoin="round"/>
<path d="M 198.13,68.39 C 211.93,76.47 224.03,84.64 208.24,74.48" fill="none" stroke="black" stroke-width="4.48" stroke-linecap="round" stroke-linejoin="round"/>
<path d="M 198.82,65.12 C 195.38,55.83 183.99,59.64 169.64,54.16" fill="none" stroke="black" stroke-width="4.48" stroke-linecap="round" stroke-linejoin="round"/>
<path d="M 159.93,42.96 C 148.12,10.90 184.11,15.08 221.04,15.47" fill="none" stroke="black" stroke-width="4.48" stroke-linecap="round" stroke-linejoin="round"/>
<path d="M 208.27,6.34 C 135.58,0.00 160.69,38.12 159.58,128.00" fill="none" stroke="black" stroke-width="4.48" stroke-linecap="round" stroke-linejoin="round"/>
<path d="M 189.78,67.69 C 171.62,64.54 168.68,57.38 162.30,49.67" fill="none" stroke="black" stroke-width="4.48" stroke-linecap="round" stroke-linejoin="round"/>
<path d="M 225.58,91.73 C 226.95,128.00 178.09,128.00 177.55,111.33" fill="none" stroke="black" stroke-width="4.48" stroke-linecap="round" stroke-linejoin="round"/>
</svg>