<svg xmlns="http://www.w3.org/2000/svg" width="1304" height="156" viewBox="0 0 1304 156">
  <rect width="1304" height="156" fill="white"/>
  <!-- upright -->
  <text x="320" y="16" font-family="monospace" font-size="11" fill="#999" text-anchor="middle" letter-spacing="3">UPRIGHT</text>
  <g transform="translate(0 20)"><svg xmlns="http://www.w3.org/2000/svg" viewBox="0 0 640 128" style="width: 100%; height: auto; max-width: 480px; max-height: 130px;">
<rect width="640" height="128" fill="white"/>
<g transform="translate(0 0)">
  <rect width="128" height="128" fill="white"/>
<path d="M 63.51,29.55 C 121.64,36.32 119.00,9.59 103.42,1.22" fill="none" stroke="black" stroke-width="5.12" stroke-linecap="round" stroke-linejoin="round"/>
<path d="M 104.91,107.72 C 126.26,42.16 124.95,50.26 72.86,72.47" fill="none" stroke="black" stroke-width="5.12" stroke-linecap="round" stroke-linejoin="round"/>
<path d="M 90.64,71.70 C 84.71,105.43 119.74,98.85 52.76,96.48" fill="none" stroke="black" stroke-width="5.12" stroke-linecap="round" stroke-linejoin="round"/>
<path d="M 113.33,98.43 C 110.15,127.61 40.77,127.82 43.99,118.61" fill="none" stroke="black" stroke-width="5.12" stroke-linecap="round" stroke-linejoin="round"/>
<path d="M 100.77,15.57 C 48.68,10.01 54.82,20.36 2.36,23.10" fill="none" stroke="black" stroke-width="5.12" stroke-linecap="round" stroke-linejoin="round"/>
<path d="M 23.83,56.16 C 67.78,66.12 84.46,44.32 124.61,56.63" fill="none" stroke="black" stroke-width="5.12" stroke-linecap="round" stroke-linejoin="round"/>
<path d="M 25.39,86.18 C 23.32,78.13 77.91,85.27 126.12,35.41" fill="none" stroke="black" stroke-width="5.12" stroke-linecap="round" stroke-linejoin="round"/>
<path d="M 18.20,110.97 C 30.27,121.30 94.84,124.08 32.91,98.79" fill="none" stroke="black" stroke-width="5.12" stroke-linecap="round" stroke-linejoin="round"/>
</g>
<g transform="translate(128 0)">
  <rect width="128" height="128" fill="white"/>
<path d="M 126.74,29.50 C 79.32,16.61 83.93,3.74 21.63,23.69" fill="none" stroke="black" stroke-width="5.12" stroke-linecap="round" stroke-linejoin="round"/>
<path d="M 7.74,57.41 C 35.13,37.03 24.89,78.80 104.51,63.50" fill="none" stroke="black" stroke-width="5.12" stroke-linecap="round" stroke-linejoin="round"/>
<path d="M 58.57,87.57 C 22.43,80.53 0.85,52.65 6.77,101.73" fill="none" stroke="black" stroke-width="5.12" stroke-linecap="round" stroke-linejoin="round"/>
<path d="M 85.25,119.28 C 82.45,88.49 26.88,110.29 91.03,98.81" fill="none" stroke="black" stroke-width="5.12" stroke-linecap="round" stroke-linejoin="round"/>
<path d="M 43.13,6.15 C 44.51,27.54 26.85,37.99 70.82,21.09" fill="none" stroke="black" stroke-width="5.12" stroke-linecap="round" stroke-linejoin="round"/>
<path d="M 116.27,36.68 C 99.96,40.83 89.55,42.89 7.98,42.32" fill="none" stroke="black" stroke-width="5.12" stroke-linecap="round" stroke-linejoin="round"/>
<path d="M 123.63,99.42 C 77.15,124.17 51.09,69.43 68.11,68.27" fill="none" stroke="black" stroke-width="5.12" stroke-linecap="round" stroke-linejoin="round"/>
<path d="M 101.63,117.25 C 2.70,121.34 10.18,105.28 48.84,96.91" fill="none" stroke="black" stroke-width="5.12" stroke-linecap="round" stroke-linejoin="round"/>
</g>
<g transform="translate(256 0)">
  <rect width="128" height="128" fill="white"/>
<path d="M 66.82,13.71 C 45.06,43.09 38.97,27.71 111.51,28.43" fill="none" stroke="black" stroke-width="5.12" stroke-linecap="round" stroke-linejoin="round"/>
<path d="M 58.86,63.18 C 25.75,53.96 12.48,50.08 23.91,22.32" fill="none" stroke="black" stroke-width="5.12" stroke-linecap="round" stroke-linejoin="round"/>
<path d="M 2.10,47.66 C 23.33,72.23 48.65,90.80 80.45,98.48" fill="none" stroke="black" stroke-width="5.12" stroke-linecap="round" stroke-linejoin="round"/>
<path d="M 44.01,124.97 C 63.96,126.29 97.86,122.82 100.08,85.08" fill="none" stroke="black" stroke-width="5.12" stroke-linecap="round" stroke-linejoin="round"/>
<path d="M 16.49,99.57 C 89.03,100.29 82.94,84.91 61.18,114.29" fill="none" stroke="black" stroke-width="5.12" stroke-linecap="round" stroke-linejoin="round"/>
<path d="M 104.09,105.68 C 115.52,77.92 102.25,74.04 69.14,64.82" fill="none" stroke="black" stroke-width="5.12" stroke-linecap="round" stroke-linejoin="round"/>
<path d="M 47.55,29.52 C 79.35,37.20 104.67,55.77 125.90,80.34" fill="none" stroke="black" stroke-width="5.12" stroke-linecap="round" stroke-linejoin="round"/>
<path d="M 27.92,42.92 C 30.14,5.18 64.04,1.71 83.99,3.03" fill="none" stroke="black" stroke-width="5.12" stroke-linecap="round" stroke-linejoin="round"/>
</g>
<g transform="translate(384 0) rotate(180 64.0 64.0)">
  <rect width="128" height="128" fill="white"/>
<path d="M 126.74,29.50 C 79.32,16.61 83.93,3.74 21.63,23.69" fill="none" stroke="black" stroke-width="5.12" stroke-linecap="round" stroke-linejoin="round"/>
<path d="M 7.74,57.41 C 35.13,37.03 24.89,78.80 104.51,63.50" fill="none" stroke="black" stroke-width="5.12" stroke-linecap="round" stroke-linejoin="round"/>
<path d="M 58.57,87.57 C 22.43,80.53 0.85,52.65 6.77,101.73" fill="none" stroke="black" stroke-width="5.12" stroke-linecap="round" stroke-linejoin="round"/>
<path d="M 85.25,119.28 C 82.45,88.49 26.88,110.29 91.03,98.81" fill="none" stroke="black" stroke-width="5.12" stroke-linecap="round" stroke-linejoin="round"/>
<path d="M 43.13,6.15 C 44.51,27.54 26.85,37.99 70.82,21.09" fill="none" stroke="black" stroke-width="5.12" stroke-linecap="round" stroke-linejoin="round"/>
<path d="M 116.27,36.68 C 99.96,40.83 89.55,42.89 7.98,42.32" fill="none" stroke="black" stroke-width="5.12" stroke-linecap="round" stroke-linejoin="round"/>
<path d="M 123.63,99.42 C 77.15,124.17 51.09,69.43 68.11,68.27" fill="none" stroke="black" stroke-width="5.12" stroke-linecap="round" stroke-linejoin="round"/>
<path d="M 101.63,117.25 C 2.70,121.34 10.18,105.28 48.84,96.91" fill="none" stroke="black" stroke-width="5.12" stroke-linecap="round" stroke-linejoin="round"/>
</g>
<g transform="translate(512 0) rotate(180 64.0 64.0)">
  <rect width="128" height="128" fill="white"/>
<path d="M 63.51,29.55 C 121.64,36.32 119.00,9.59 103.42,1.22" fill="none" stroke="black" stroke-width="5.12" stroke-linecap="round" stroke-linejoin="round"/>
<path d="M 104.91,107.72 C 126.26,42.16 124.95,50.26 72.86,72.47" fill="none" stroke="black" stroke-width="5.12" stroke-linecap="round" stroke-linejoin="round"/>
<path d="M 90.64,71.70 C 84.71,105.43 119.74,98.85 52.76,96.48" fill="none" stroke="black" stroke-width="5.12" stroke-linecap="round" stroke-linejoin="round"/>
<path d="M 113.33,98.43 C 110.15,127.61 40.77,127.82 43.99,118.61" fill="none" stroke="black" stroke-width="5.12" stroke-linecap="round" stroke-linejoin="round"/>
<path d="M 100.77,15.57 C 48.68,10.01 54.82,20.36 2.36,23.10" fill="none" stroke="black" stroke-width="5.12" stroke-linecap="round" stroke-linejoin="round"/>
<path d="M 23.83,56.16 C 67.78,66.12 84.46,44.32 124.61,56.63" fill="none" stroke="black" stroke-width="5.12" stroke-linecap="round" stroke-linejoin="round"/>
<path d="M 25.39,86.18 C 23.32,78.13 77.91,85.27 126.12,35.41" fill="none" stroke="black" stroke-width="5.12" stroke-linecap="round" stroke-linejoin="round"/>
<path d="M 18.20,110.97 C 30.27,121.30 94.84,124.08 32.91,98.79" fill="none" stroke="black" stroke-width="5.12" stroke-linecap="round" stroke-linejoin="round"/>
</g>
</svg></g>
  <!-- rotated -->
  <text x="984" y="16" font-family="monospace" font-size="11" fill="#999" text-anchor="middle" letter-spacing="3">ROTATED 180°</text>
  <g transform="translate(664 20)"><svg xmlns="http://www.w3.org/2000/svg" viewBox="0 0 640 128" style="width: 100%; height: auto; max-width: 480px; max-height: 130px;">
<rect width="640" height="128" fill="white"/>
<g transform="rotate(180 320.0 64.0)">
<g transform="translate(0 0)">
  <rect width="128" height="128" fill="white"/>
<path d="M 63.51,29.55 C 121.64,36.32 119.00,9.59 103.42,1.22" fill="none" stroke="black" stroke-width="5.12" stroke-linecap="round" stroke-linejoin="round"/>
<path d="M 104.91,107.72 C 126.26,42.16 124.95,50.26 72.86,72.47" fill="none" stroke="black" stroke-width="5.12" stroke-linecap="round" stroke-linejoin="round"/>
<path d="M 90.64,71.70 C 84.71,105.43 119.74,98.85 52.76,96.48" fill="none" stroke="black" stroke-width="5.12" stroke-linecap="round" stroke-linejoin="round"/>
<path d="M 113.33,98.43 C 110.15,127.61 40.77,127.82 43.99,118.61" fill="none" stroke="black" stroke-width="5.12" stroke-linecap="round" stroke-linejoin="round"/>
<path d="M 100.77,15.57 C 48.68,10.01 54.82,20.36 2.36,23.10" fill="none" stroke="black" stroke-width="5.12" stroke-linecap="round" stroke-linejoin="round"/>
<path d="M 23.83,56.16 C 67.78,66.12 84.46,44.32 124.61,56.63" fill="none" stroke="black" stroke-width="5.12" stroke-linecap="round" stroke-linejoin="round"/>
<path d="M 25.39,86.18 C 23.32,78.13 77.91,85.27 126.12,35.41" fill="none" stroke="black" stroke-width="5.12" stroke-linecap="round" stroke-linejoin="round"/>
<path d="M 18.20,110.97 C 30.27,121.30 94.84,124.08 32.91,98.79" fill="none" stroke="black" stroke-width="5.12" stroke-linecap="round" stroke-linejoin="round"/>
</g>
<g transform="translate(128 0)">
  <rect width="128" height="128" fill="white"/>
<path d="M 126.74,29.50 C 79.32,16.61 83.93,3.74 21.63,23.69" fill="none" stroke="black" stroke-width="5.12" stroke-linecap="round" stroke-linejoin="round"/>
<path d="M 7.74,57.41 C 35.13,37.03 24.89,78.80 104.51,63.50" fill="none" stroke="black" stroke-width="5.12" stroke-linecap="round" stroke-linejoin="round"/>
<path d="M 58.57,87.57 C 22.43,80.53 0.85,52.65 6.77,101.73" fill="none" stroke="black" stroke-width="5.12" stroke-linecap="round" stroke-linejoin="round"/>
<path d="M 85.25,119.28 C 82.45,88.49 26.88,110.29 91.03,98.81" fill="none" stroke="black" stroke-width="5.12" stroke-linecap="round" stroke-linejoin="round"/>
<path d="M 43.13,6.15 C 44.51,27.54 26.85,37.99 70.82,21.09" fill="none" stroke="black" stroke-width="5.12" stroke-linecap="round" stroke-linejoin="round"/>
<path d="M 116.27,36.68 C 99.96,40.83 89.55,42.89 7.98,42.32" fill="none" stroke="black" stroke-width="5.12" stroke-linecap="round" stroke-linejoin="round"/>
<path d="M 123.63,99.42 C 77.15,124.17 51.09,69.43 68.11,68.27" fill="none" stroke="black" stroke-width="5.12" stroke-linecap="round" stroke-linejoin="round"/>
<path d="M 101.63,117.25 C 2.70,121.34 10.18,105.28 48.84,96.91" fill="none" stroke="black" stroke-width="5.12" stroke-linecap="round" stroke-linejoin="round"/>
</g>
<g transform="translate(256 0)">
  <rect width="128" height="128" fill="white"/>
<path d="M 66.82,13.71 C 45.06,43.09 38.97,27.71 111.51,28.43" fill="none" stroke="black" stroke-width="5.12" stroke-linecap="round" stroke-linejoin="round"/>
<path d="M 58.86,63.18 C 25.75,53.96 12.48,50.08 23.91,22.32" fill="none" stroke="black" stroke-width="5.12" stroke-linecap="round" stroke-linejoin="round"/>
<path d="M 2.10,47.66 C 23.33,72.23 48.65,90.80 80.45,98.48" fill="none" stroke="black" stroke-width="5.12" stroke-linecap="round" stroke-linejoin="round"/>
<path d="M 44.01,124.97 C 63.96,126.29 97.86,122.82 100.08,85.08" fill="none" stroke="black" stroke-width="5.12" stroke-linecap="round" stroke-linejoin="round"/>
<path d="M 16.49,99.57 C 89.03,100.29 82.94,84.91 61.18,114.29" fill="none" stroke="black" stroke-width="5.12" stroke-linecap="round" stroke-linejoin="round"/>
<path d="M 104.09,105.68 C 115.52,77.92 102.25,74.04 69.14,64.82" fill="none" stroke="black" stroke-width="5.12" stroke-linecap="round" stroke-linejoin="round"/>
<path d="M 47.55,29.52 C 79.35,37.20 104.67,55.77 125.90,80.34" fill="none" stroke="black" stroke-width="5.12" stroke-linecap="round" stroke-linejoin="round"/>
<path d="M 27.92,42.92 C 30.14,5.18 64.04,1.71 83.99,3.03" fill="none" stroke="black" stroke-width="5.12" stroke-linecap="round" stroke-linejoin="round"/>
</g>
<g transform="translate(384 0) rotate(180 64.0 64.0)">
  <rect width="128" height="128" fill="white"/>
<path d="M 126.74,29.50 C 79.32,16.61 83.93,3.74 21.63,23.69" fill="none" stroke="black" stroke-width="5.12" stroke-linecap="round" stroke-linejoin="round"/>
<path d="M 7.74,57.41 C 35.13,37.03 24.89,78.80 104.51,63.50" fill="none" stroke="black" stroke-width="5.12" stroke-linecap="round" stroke-linejoin="round"/>
<path d="M 58.57,87.57 C 22.43,80.53 0.85,52.65 6.77,101.73" fill="none" stroke="black" stroke-width="5.12" stroke-linecap="round" stroke-linejoin="round"/>
<path d="M 85.25,119.28 C 82.45,88.49 26.88,110.29 91.03,98.81" fill="none" stroke="black" stroke-width="5.12" stroke-linecap="round" stroke-linejoin="round"/>
<path d="M 43.13,6.15 C 44.51,27.54 26.85,37.99 70.82,21.09" fill="none" stroke="black" stroke-width="5.12" stroke-linecap="round" stroke-linejoin="round"/>
<path d="M 116.27,36.68 C 99.96,40.83 89.55,42.89 7.98,42.32" fill="none" stroke="black" stroke-width="5.12" stroke-linecap="round" stroke-linejoin="round"/>
<path d="M 123.63,99.42 C 77.15,124.17 51.09,69.43 68.11,68.27" fill="none" stroke="black" stroke-width="5.12" stroke-linecap="round" stroke-linejoin="round"/>
<path d="M 101.63,117.25 C 2.70,121.34 10.18,105.28 48.84,96.91" fill="none" stroke="black" stroke-width="5.12" stroke-linecap="round" stroke-linejoin="round"/>
</g>
<g transform="translate(512 0) rotate(180 64.0 64.0)">
  <rect width="128" height="128" fill="white"/>
<path d="M 63.51,29.55 C 121.64,36.32 119.00,9.59 103.42,1.22" fill="none" stroke="black" stroke-width="5.12" stroke-linecap="round" stroke-linejoin="round"/>
<path d="M 104.91,107.72 C 126.26,42.16 124.95,50.26 72.86,72.47" fill="none" stroke="black" stroke-width="5.12" stroke-linecap="round" stroke-linejoin="round"/>
<path d="M 90.64,71.70 C 84.71,105.43 119.74,98.85 52.76,96.48" fill="none" stroke="black" stroke-width="5.12" stroke-linecap="round" stroke-linejoin="round"/>
<path d="M 113.33,98.43 C 110.15,127.61 40.77,127.82 43.99,118.61" fill="none" stroke="black" stroke-width="5.12" stroke-linecap="round" stroke-linejoin="round"/>
<path d="M 100.77,15.57 C 48.68,10.01 54.82,20.36 2.36,23.10" fill="none" stroke="black" stroke-width="5.12" stroke-linecap="round" stroke-linejoin="round"/>
<path d="M 23.83,56.16 C 67.78,66.12 84.46,44.32 124.61,56.63" fill="none" stroke="black" stroke-width="5.12" stroke-linecap="round" stroke-linejoin="round"/>
<path d="M 25.39,86.18 C 23.32,78.13 77.91,85.27 126.12,35.41" fill="none" stroke="black" stroke-width="5.12" stroke-linecap="round" stroke-linejoin="round"/>
<path d="M 18.20,110.97 C 30.27,121.30 94.84,124.08 32.91,98.79" fill="none" stroke="black" stroke-width="5.12" stroke-linecap="round" stroke-linejoin="round"/>
</g>
</g>
</svg></g>
</svg>