<svg xmlns="http://www.w3.org/2000/svg" width="1304" height="156" viewBox="0 0 1304 156">
  <rect width="1304" height="156" fill="white"/>
  <!-- upright -->
  <text x="320" y="16" font-family="monospace" font-size="11" fill="#999" text-anchor="middle" letter-spacing="3">UPRIGHT</text>
  <g transform="translate(0 20)"><svg xmlns="http://www.w3.org/2000/svg" viewBox="0 0 640 128" style="width: 100%; height: auto; max-width: 480px; max-height: 130px;">
<rect width="640" height="128" fill="white"/>
<g transform="translate(0 0)">
  <rect width="128" height="128" fill="white"/>
<path d="M 27.4,22.5 L 26.8,24.7 L 26.6,27.0 L 26.8,29.5 L 27.6,32.0 L 28.8,34.5 L 30.5,36.7 L 32.7,38.8 L 35.2,40.5 L 38.0,42.0 L 41.1,43.2 L 44.6,44.0 L 48.2,44.6 L 52.2,45.0 L 56.5,45.0 L 61.1,44.9 L 66.0,44.5 L 71.3,43.9 L 77.0,43.1 L 83.1,42.2 L 89.5,41.1 L 96.4,39.9 L 103.8,38.6 L 111.6,37.3 L 111.6,36.3 L 103.7,35.2 L 96.4,34.1 L 89.5,33.0 L 83.1,31.9 L 77.2,30.8 L 71.7,29.8 L 66.7,28.9 L 62.1,28.0 L 58.0,27.2 L 54.2,26.5 L 50.9,26.0 L 47.9,25.5 L 45.4,25.1 L 43.1,24.9 L 41.2,24.7 L 39.4,24.7 L 37.9,24.7 L 36.4,24.8 L 34.9,24.8 L 33.4,24.6 L 31.7,24.2 L 30.0,23.4 L 28.4,22.2 Z" fill="black" stroke="none"/>
<path d="M 116.0,77.6 L 110.8,78.4 L 106.0,79.0 L 101.6,79.6 L 97.6,80.0 L 93.9,80.4 L 90.5,80.7 L 87.4,81.0 L 84.6,81.2 L 81.9,81.5 L 79.4,81.8 L 76.9,82.2 L 74.4,82.6 L 71.8,83.2 L 68.9,83.8 L 65.9,84.5 L 62.4,85.3 L 58.7,86.2 L 54.5,87.2 L 49.8,88.2 L 44.7,89.2 L 39.0,90.3 L 32.7,91.4 L 25.8,92.5 L 25.8,93.5 L 32.6,94.8 L 38.9,96.2 L 44.6,97.4 L 49.8,98.5 L 54.6,99.5 L 59.0,100.3 L 63.1,101.0 L 66.9,101.4 L 70.6,101.6 L 74.0,101.6 L 77.4,101.3 L 80.6,100.7 L 83.7,99.8 L 86.7,98.7 L 89.6,97.4 L 92.5,95.8 L 95.3,93.9 L 98.3,91.9 L 101.3,89.6 L 104.6,87.1 L 108.2,84.5 L 112.0,81.6 L 116.3,78.6 Z" fill="black" stroke="none"/>
<path d="M 41.0,115.4 L 40.2,116.4 L 39.0,114.1 L 42.2,111.4 L 43.1,110.5 L 43.3,109.6 L 43.3,108.6 L 43.1,107.6 L 42.6,106.6 L 41.9,105.6 L 41.0,104.7 L 39.8,103.8 L 38.5,102.9 L 37.0,102.1 L 35.3,101.4 L 33.4,100.7 L 31.4,100.0 L 29.1,99.4 L 26.8,98.8 L 24.3,98.2 L 21.7,97.5 L 19.0,96.9 L 16.2,96.2 L 13.3,95.4 L 12.7,96.2 L 14.0,98.9 L 15.3,101.5 L 16.7,104.0 L 18.1,106.4 L 19.5,108.7 L 20.9,110.8 L 22.3,112.8 L 23.8,114.6 L 25.3,116.2 L 26.8,117.6 L 28.3,118.8 L 29.8,119.8 L 31.3,120.5 L 32.8,121.0 L 34.2,121.2 L 35.5,121.3 L 36.9,121.1 L 38.1,120.7 L 39.3,120.2 L 40.7,119.4 L 44.2,116.8 L 42.9,114.2 L 41.6,114.7 Z" fill="black" stroke="none"/>
<path d="M 13.0,14.0 L 20.8,15.1 L 28.2,16.1 L 35.5,17.1 L 42.4,18.1 L 49.1,18.9 L 55.5,19.7 L 61.6,20.4 L 67.4,20.9 L 72.9,21.3 L 78.1,21.6 L 82.9,21.8 L 87.5,21.8 L 91.7,21.8 L 95.6,21.5 L 99.2,21.2 L 102.4,20.8 L 105.4,20.3 L 108.0,19.8 L 110.3,19.2 L 112.3,18.5 L 114.2,17.9 L 115.8,17.4 L 117.4,17.0 L 118.1,16.3 L 117.5,14.4 L 116.3,12.5 L 114.6,10.7 L 112.4,9.1 L 109.8,7.6 L 106.9,6.3 L 103.7,5.2 L 100.2,4.3 L 96.3,3.7 L 92.2,3.2 L 87.7,3.0 L 83.0,2.9 L 78.0,3.1 L 72.7,3.5 L 67.2,4.0 L 61.3,4.7 L 55.2,5.6 L 48.9,6.6 L 42.2,7.8 L 35.3,9.0 L 28.1,10.3 L 20.7,11.6 L 13.0,13.0 Z" fill="black" stroke="none"/>
<path d="M 124.2,53.9 L 121.3,53.5 L 118.3,53.2 L 115.2,52.9 L 112.1,52.6 L 108.8,52.4 L 105.6,52.3 L 102.2,52.2 L 98.8,52.3 L 95.4,52.5 L 91.9,52.7 L 88.4,53.1 L 84.8,53.7 L 81.2,54.3 L 77.6,55.1 L 73.9,55.9 L 70.1,56.9 L 66.3,58.0 L 62.5,59.1 L 58.6,60.2 L 54.7,61.4 L 50.7,62.5 L 46.7,63.7 L 42.6,64.7 L 42.5,65.7 L 46.6,67.1 L 50.6,68.4 L 54.8,69.5 L 58.9,70.5 L 63.1,71.4 L 67.2,72.0 L 71.4,72.5 L 75.5,72.8 L 79.5,72.9 L 83.5,72.7 L 87.5,72.4 L 91.3,71.8 L 95.0,71.0 L 98.7,70.0 L 102.2,68.9 L 105.5,67.5 L 108.7,66.0 L 111.8,64.4 L 114.7,62.6 L 117.4,60.7 L 120.0,58.8 L 122.3,56.8 L 124.5,54.8 Z" fill="black" stroke="none"/>
<path d="M 116.6,99.6 L 112.4,101.3 L 108.5,102.8 L 105.0,103.9 L 101.8,104.9 L 98.8,105.6 L 96.2,106.2 L 93.8,106.6 L 91.7,106.8 L 89.8,107.1 L 88.0,107.3 L 86.2,107.5 L 84.3,107.8 L 82.2,108.1 L 79.8,108.6 L 77.1,109.1 L 74.0,109.6 L 70.5,110.2 L 66.6,110.8 L 62.2,111.4 L 57.4,112.0 L 52.2,112.7 L 46.4,113.3 L 40.1,114.0 L 40.0,115.0 L 46.1,116.8 L 51.6,118.5 L 56.7,120.1 L 61.3,121.7 L 65.6,123.0 L 69.6,124.2 L 73.3,125.2 L 76.8,126.0 L 80.2,126.5 L 83.4,126.7 L 86.6,126.5 L 89.7,126.0 L 92.8,125.2 L 95.6,124.0 L 98.3,122.4 L 100.8,120.6 L 103.2,118.4 L 105.4,116.0 L 107.6,113.4 L 109.8,110.5 L 112.1,107.4 L 114.5,104.0 L 117.2,100.4 Z" fill="black" stroke="none"/>
</g>
<g transform="translate(128 0)">
  <rect width="128" height="128" fill="white"/>
<path d="M 12.9,34.4 L 15.6,31.1 L 18.2,28.4 L 20.7,26.2 L 23.1,24.6 L 25.2,23.5 L 27.1,23.0 L 28.8,22.7 L 30.4,22.6 L 32.2,22.5 L 34.2,22.4 L 36.7,22.2 L 39.8,22.0 L 43.4,21.8 L 47.6,21.6 L 52.4,21.3 L 57.8,21.1 L 63.9,20.8 L 70.6,20.4 L 78.0,20.0 L 86.1,19.5 L 94.9,18.9 L 104.4,18.3 L 114.7,17.5 L 114.7,16.5 L 104.6,14.8 L 95.2,13.1 L 86.7,11.3 L 78.8,9.7 L 71.6,8.1 L 65.0,6.7 L 59.0,5.5 L 53.4,4.5 L 48.3,3.7 L 43.6,3.3 L 39.1,3.1 L 34.9,3.4 L 31.0,4.1 L 27.2,5.3 L 23.8,7.0 L 20.7,9.3 L 18.2,12.1 L 16.2,15.2 L 14.7,18.5 L 13.7,22.0 L 13.0,25.7 L 12.5,29.7 L 12.0,34.1 Z" fill="black" stroke="none"/>
<path d="M 0.4,79.1 L 6.1,81.4 L 11.4,83.5 L 16.4,85.5 L 21.2,87.2 L 25.8,88.8 L 30.2,90.1 L 34.4,91.2 L 38.5,92.0 L 42.5,92.5 L 46.4,92.8 L 50.1,92.8 L 53.8,92.4 L 57.4,91.8 L 60.8,90.9 L 64.1,89.7 L 67.3,88.2 L 70.4,86.5 L 73.4,84.6 L 76.4,82.5 L 79.4,80.2 L 82.3,77.8 L 85.4,75.3 L 88.5,72.6 L 88.1,71.7 L 84.0,72.1 L 80.1,72.4 L 76.4,72.7 L 72.9,72.8 L 69.5,72.9 L 66.3,73.0 L 63.3,73.1 L 60.3,73.2 L 57.4,73.3 L 54.6,73.5 L 51.7,73.7 L 48.8,73.9 L 45.7,74.3 L 42.5,74.7 L 39.0,75.1 L 35.4,75.6 L 31.4,76.0 L 27.1,76.5 L 22.6,77.0 L 17.6,77.4 L 12.3,77.8 L 6.7,78.0 L 0.6,78.2 Z" fill="black" stroke="none"/>
<path d="M 3.2,115.2 L 6.0,114.5 L 8.6,114.3 L 11.1,114.3 L 13.5,114.6 L 15.9,115.0 L 18.4,115.4 L 21.0,115.9 L 23.8,116.4 L 27.0,116.9 L 30.5,117.4 L 34.3,117.8 L 38.6,118.1 L 43.3,118.3 L 48.4,118.4 L 54.0,118.5 L 60.0,118.4 L 66.5,118.1 L 73.5,117.8 L 80.9,117.3 L 88.9,116.6 L 97.4,115.9 L 106.4,115.0 L 115.9,114.0 L 115.9,113.0 L 106.5,111.5 L 97.6,110.1 L 89.3,108.5 L 81.6,107.0 L 74.4,105.5 L 67.7,104.1 L 61.4,102.8 L 55.6,101.6 L 50.1,100.6 L 45.0,99.8 L 40.2,99.3 L 35.6,98.9 L 31.3,98.8 L 27.3,99.0 L 23.4,99.5 L 19.8,100.3 L 16.4,101.5 L 13.2,102.9 L 10.4,104.7 L 7.9,106.8 L 5.7,109.2 L 4.0,111.8 L 2.6,114.5 Z" fill="black" stroke="none"/>
<path d="M 36.9,35.5 L 42.4,37.8 L 47.4,40.0 L 52.0,42.1 L 56.2,44.0 L 60.0,45.7 L 63.4,47.3 L 66.6,48.6 L 69.6,49.7 L 72.3,50.7 L 74.9,51.3 L 77.3,51.8 L 79.7,52.0 L 81.9,52.0 L 84.0,51.7 L 86.0,51.3 L 88.0,50.6 L 89.9,49.7 L 91.7,48.6 L 93.4,47.4 L 95.2,46.1 L 97.0,44.7 L 99.0,43.2 L 101.1,41.6 L 100.9,40.6 L 98.4,39.8 L 96.2,38.9 L 94.1,38.1 L 92.2,37.2 L 90.4,36.4 L 88.8,35.6 L 87.3,35.0 L 85.9,34.4 L 84.4,33.9 L 82.9,33.5 L 81.2,33.2 L 79.3,33.0 L 77.3,32.9 L 74.9,33.0 L 72.3,33.0 L 69.3,33.2 L 65.9,33.4 L 62.2,33.6 L 58.1,33.9 L 53.5,34.1 L 48.5,34.3 L 43.1,34.5 L 37.1,34.5 Z" fill="black" stroke="none"/>
<path d="M 105.1,85.0 L 99.6,83.5 L 94.9,81.7 L 90.7,79.7 L 87.2,77.6 L 84.1,75.4 L 81.4,73.2 L 78.9,71.0 L 76.5,68.8 L 74.2,66.6 L 71.7,64.5 L 69.1,62.3 L 66.2,60.2 L 63.0,58.2 L 59.5,56.3 L 55.7,54.7 L 51.5,53.3 L 47.0,52.2 L 42.2,51.6 L 37.1,51.3 L 31.6,51.4 L 25.8,52.0 L 19.6,52.9 L 12.9,54.2 L 12.9,55.2 L 19.5,56.3 L 25.4,57.8 L 30.5,59.5 L 34.9,61.4 L 38.7,63.4 L 42.1,65.4 L 45.0,67.5 L 47.7,69.5 L 50.2,71.5 L 52.7,73.5 L 55.2,75.5 L 57.9,77.5 L 60.8,79.4 L 63.9,81.3 L 67.4,83.0 L 71.1,84.5 L 75.1,85.8 L 79.4,86.8 L 84.0,87.4 L 88.8,87.6 L 93.9,87.4 L 99.3,86.9 L 105.1,86.0 Z" fill="black" stroke="none"/>
<path d="M 112.8,105.6 L 101.3,105.2 L 90.6,104.8 L 80.7,104.4 L 71.7,104.0 L 63.5,103.8 L 56.1,103.5 L 49.7,103.3 L 44.1,103.3 L 39.3,103.2 L 35.5,103.3 L 32.5,103.5 L 30.5,103.7 L 29.6,103.9 L 33.2,121.5 L 32.0,121.4 L 33.3,120.5 L 35.5,119.4 L 38.7,118.0 L 42.7,116.3 L 47.6,114.4 L 53.5,112.3 L 60.2,109.9 L 67.8,107.3 L 67.6,106.4 L 59.6,106.5 L 52.5,106.5 L 46.3,106.4 L 41.1,106.1 L 36.7,105.8 L 33.3,105.5 L 30.8,105.1 L 29.1,104.7 L 26.8,104.8 L 31.0,122.4 L 32.4,122.4 L 34.5,122.2 L 37.4,121.8 L 41.1,121.0 L 45.7,120.1 L 51.2,118.9 L 57.4,117.6 L 64.6,116.0 L 72.5,114.3 L 81.4,112.5 L 91.0,110.6 L 101.5,108.6 L 112.9,106.6 Z" fill="black" stroke="none"/>
</g>
<g transform="translate(256 0)">
  <rect width="128" height="128" fill="white"/>
<path d="M 17.7,21.6 L 20.2,21.4 L 23.0,21.4 L 26.0,21.5 L 29.2,21.6 L 32.8,21.7 L 36.5,21.8 L 40.5,21.9 L 44.7,22.0 L 49.1,22.0 L 53.6,22.0 L 58.3,21.9 L 63.0,21.7 L 67.8,21.5 L 72.6,21.3 L 77.5,21.0 L 82.4,20.7 L 87.2,20.4 L 92.0,20.1 L 96.6,19.8 L 101.2,19.6 L 105.7,19.5 L 110.0,19.5 L 114.2,19.6 L 114.6,18.7 L 111.1,16.2 L 107.2,13.8 L 103.0,11.6 L 98.4,9.7 L 93.7,7.9 L 88.7,6.4 L 83.6,5.1 L 78.4,4.1 L 73.2,3.4 L 67.9,3.0 L 62.6,2.9 L 57.4,3.0 L 52.3,3.5 L 47.4,4.2 L 42.7,5.2 L 38.2,6.5 L 33.9,8.0 L 30.0,9.7 L 26.4,11.7 L 23.3,13.8 L 20.7,16.0 L 18.6,18.4 L 17.1,20.8 Z" fill="black" stroke="none"/>
<path d="M 67.3,58.1 L 67.3,60.5 L 67.5,62.8 L 68.0,65.0 L 68.7,67.2 L 69.7,69.2 L 70.9,71.0 L 72.2,72.6 L 73.5,74.0 L 74.9,75.2 L 76.3,76.2 L 77.8,77.1 L 79.4,77.9 L 81.0,78.6 L 82.9,79.4 L 85.0,80.2 L 87.4,81.2 L 90.0,82.3 L 93.0,83.8 L 96.2,85.5 L 99.8,87.6 L 103.6,90.2 L 107.7,93.3 L 112.0,96.9 L 112.8,96.3 L 110.4,91.1 L 108.0,86.4 L 105.8,82.1 L 103.5,78.2 L 101.4,74.7 L 99.2,71.6 L 97.0,68.8 L 94.8,66.4 L 92.6,64.3 L 90.4,62.6 L 88.2,61.2 L 86.2,60.2 L 84.3,59.4 L 82.5,59.0 L 80.9,58.7 L 79.4,58.7 L 78.0,58.8 L 76.7,59.0 L 75.3,59.2 L 73.7,59.3 L 72.0,59.1 L 70.2,58.6 L 68.2,57.6 Z" fill="black" stroke="none"/>
<path d="M 15.6,64.8 L 17.9,69.8 L 20.3,74.5 L 22.8,78.8 L 25.6,82.8 L 28.6,86.5 L 31.7,89.8 L 35.0,92.8 L 38.5,95.3 L 42.0,97.4 L 45.6,99.1 L 49.1,100.4 L 52.7,101.3 L 56.1,101.8 L 59.5,101.9 L 62.6,101.7 L 65.6,101.2 L 68.4,100.5 L 70.9,99.6 L 73.1,98.5 L 75.1,97.2 L 76.9,95.9 L 78.4,94.6 L 79.6,93.2 L 79.5,92.2 L 78.0,91.1 L 76.3,90.1 L 74.5,89.1 L 72.5,88.2 L 70.4,87.3 L 68.3,86.4 L 66.1,85.6 L 63.9,84.8 L 61.6,84.1 L 59.2,83.5 L 56.7,82.8 L 54.2,82.2 L 51.6,81.5 L 48.8,80.9 L 45.9,80.1 L 42.8,79.2 L 39.5,78.1 L 36.0,76.7 L 32.4,75.0 L 28.5,73.0 L 24.6,70.6 L 20.5,67.6 L 16.4,64.2 Z" fill="black" stroke="none"/>
<path d="M 13.4,109.3 L 16.9,111.8 L 20.8,114.2 L 25.0,116.4 L 29.6,118.3 L 34.3,120.1 L 39.3,121.6 L 44.4,122.9 L 49.6,123.9 L 54.8,124.6 L 60.1,125.0 L 65.4,125.1 L 70.6,125.0 L 75.7,124.5 L 80.6,123.8 L 85.3,122.8 L 89.8,121.5 L 94.1,120.0 L 98.0,118.3 L 101.6,116.3 L 104.7,114.2 L 107.3,112.0 L 109.4,109.6 L 110.9,107.2 L 110.3,106.4 L 107.8,106.6 L 105.0,106.6 L 102.0,106.5 L 98.8,106.4 L 95.2,106.3 L 91.5,106.2 L 87.5,106.1 L 83.3,106.0 L 78.9,106.0 L 74.4,106.0 L 69.7,106.1 L 65.0,106.3 L 60.2,106.5 L 55.4,106.7 L 50.5,107.0 L 45.6,107.3 L 40.8,107.6 L 36.0,107.9 L 31.4,108.2 L 26.8,108.4 L 22.3,108.5 L 18.0,108.5 L 13.8,108.4 Z" fill="black" stroke="none"/>
<path d="M 15.2,31.7 L 17.6,36.9 L 20.0,41.6 L 22.2,45.9 L 24.5,49.8 L 26.6,53.3 L 28.8,56.4 L 31.0,59.2 L 33.2,61.6 L 35.4,63.7 L 37.6,65.4 L 39.8,66.8 L 41.8,67.8 L 43.7,68.6 L 45.5,69.0 L 47.1,69.3 L 48.6,69.3 L 50.0,69.2 L 51.3,69.0 L 52.7,68.8 L 54.3,68.7 L 56.0,68.9 L 57.8,69.4 L 59.8,70.4 L 60.7,69.9 L 60.7,67.5 L 60.5,65.2 L 60.0,63.0 L 59.3,60.8 L 58.3,58.8 L 57.1,57.0 L 55.8,55.4 L 54.5,54.0 L 53.1,52.8 L 51.7,51.8 L 50.2,50.9 L 48.6,50.1 L 47.0,49.4 L 45.1,48.6 L 43.0,47.8 L 40.6,46.8 L 38.0,45.7 L 35.0,44.2 L 31.8,42.5 L 28.2,40.4 L 24.4,37.8 L 20.3,34.7 L 16.0,31.1 Z" fill="black" stroke="none"/>
<path d="M 48.5,35.8 L 50.0,36.9 L 51.7,37.9 L 53.5,38.9 L 55.5,39.8 L 57.6,40.7 L 59.7,41.6 L 61.9,42.4 L 64.1,43.2 L 66.4,43.9 L 68.8,44.5 L 71.3,45.2 L 73.8,45.8 L 76.4,46.5 L 79.2,47.1 L 82.1,47.9 L 85.2,48.8 L 88.5,49.9 L 92.0,51.3 L 95.6,53.0 L 99.5,55.0 L 103.4,57.4 L 107.5,60.4 L 111.6,63.8 L 112.4,63.2 L 110.1,58.2 L 107.7,53.5 L 105.2,49.2 L 102.4,45.2 L 99.4,41.5 L 96.3,38.2 L 93.0,35.2 L 89.5,32.7 L 86.0,30.6 L 82.4,28.9 L 78.9,27.6 L 75.3,26.7 L 71.9,26.2 L 68.5,26.1 L 65.4,26.3 L 62.4,26.8 L 59.6,27.5 L 57.1,28.4 L 54.9,29.5 L 52.9,30.8 L 51.1,32.1 L 49.6,33.4 L 48.4,34.8 Z" fill="black" stroke="none"/>
</g>
<g transform="translate(384 0) rotate(180 64.0 64.0)">
  <rect width="128" height="128" fill="white"/>
<path d="M 12.9,34.4 L 15.6,31.1 L 18.2,28.4 L 20.7,26.2 L 23.1,24.6 L 25.2,23.5 L 27.1,23.0 L 28.8,22.7 L 30.4,22.6 L 32.2,22.5 L 34.2,22.4 L 36.7,22.2 L 39.8,22.0 L 43.4,21.8 L 47.6,21.6 L 52.4,21.3 L 57.8,21.1 L 63.9,20.8 L 70.6,20.4 L 78.0,20.0 L 86.1,19.5 L 94.9,18.9 L 104.4,18.3 L 114.7,17.5 L 114.7,16.5 L 104.6,14.8 L 95.2,13.1 L 86.7,11.3 L 78.8,9.7 L 71.6,8.1 L 65.0,6.7 L 59.0,5.5 L 53.4,4.5 L 48.3,3.7 L 43.6,3.3 L 39.1,3.1 L 34.9,3.4 L 31.0,4.1 L 27.2,5.3 L 23.8,7.0 L 20.7,9.3 L 18.2,12.1 L 16.2,15.2 L 14.7,18.5 L 13.7,22.0 L 13.0,25.7 L 12.5,29.7 L 12.0,34.1 Z" fill="black" stroke="none"/>
<path d="M 0.4,79.1 L 6.1,81.4 L 11.4,83.5 L 16.4,85.5 L 21.2,87.2 L 25.8,88.8 L 30.2,90.1 L 34.4,91.2 L 38.5,92.0 L 42.5,92.5 L 46.4,92.8 L 50.1,92.8 L 53.8,92.4 L 57.4,91.8 L 60.8,90.9 L 64.1,89.7 L 67.3,88.2 L 70.4,86.5 L 73.4,84.6 L 76.4,82.5 L 79.4,80.2 L 82.3,77.8 L 85.4,75.3 L 88.5,72.6 L 88.1,71.7 L 84.0,72.1 L 80.1,72.4 L 76.4,72.7 L 72.9,72.8 L 69.5,72.9 L 66.3,73.0 L 63.3,73.1 L 60.3,73.2 L 57.4,73.3 L 54.6,73.5 L 51.7,73.7 L 48.8,73.9 L 45.7,74.3 L 42.5,74.7 L 39.0,75.1 L 35.4,75.6 L 31.4,76.0 L 27.1,76.5 L 22.6,77.0 L 17.6,77.4 L 12.3,77.8 L 6.7,78.0 L 0.6,78.2 Z" fill="black" stroke="none"/>
<path d="M 3.2,115.2 L 6.0,114.5 L 8.6,114.3 L 11.1,114.3 L 13.5,114.6 L 15.9,115.0 L 18.4,115.4 L 21.0,115.9 L 23.8,116.4 L 27.0,116.9 L 30.5,117.4 L 34.3,117.8 L 38.6,118.1 L 43.3,118.3 L 48.4,118.4 L 54.0,118.5 L 60.0,118.4 L 66.5,118.1 L 73.5,117.8 L 80.9,117.3 L 88.9,116.6 L 97.4,115.9 L 106.4,115.0 L 115.9,114.0 L 115.9,113.0 L 106.5,111.5 L 97.6,110.1 L 89.3,108.5 L 81.6,107.0 L 74.4,105.5 L 67.7,104.1 L 61.4,102.8 L 55.6,101.6 L 50.1,100.6 L 45.0,99.8 L 40.2,99.3 L 35.6,98.9 L 31.3,98.8 L 27.3,99.0 L 23.4,99.5 L 19.8,100.3 L 16.4,101.5 L 13.2,102.9 L 10.4,104.7 L 7.9,106.8 L 5.7,109.2 L 4.0,111.8 L 2.6,114.5 Z" fill="black" stroke="none"/>
<path d="M 36.9,35.5 L 42.4,37.8 L 47.4,40.0 L 52.0,42.1 L 56.2,44.0 L 60.0,45.7 L 63.4,47.3 L 66.6,48.6 L 69.6,49.7 L 72.3,50.7 L 74.9,51.3 L 77.3,51.8 L 79.7,52.0 L 81.9,52.0 L 84.0,51.7 L 86.0,51.3 L 88.0,50.6 L 89.9,49.7 L 91.7,48.6 L 93.4,47.4 L 95.2,46.1 L 97.0,44.7 L 99.0,43.2 L 101.1,41.6 L 100.9,40.6 L 98.4,39.8 L 96.2,38.9 L 94.1,38.1 L 92.2,37.2 L 90.4,36.4 L 88.8,35.6 L 87.3,35.0 L 85.9,34.4 L 84.4,33.9 L 82.9,33.5 L 81.2,33.2 L 79.3,33.0 L 77.3,32.9 L 74.9,33.0 L 72.3,33.0 L 69.3,33.2 L 65.9,33.4 L 62.2,33.6 L 58.1,33.9 L 53.5,34.1 L 48.5,34.3 L 43.1,34.5 L 37.1,34.5 Z" fill="black" stroke="none"/>
<path d="M 105.1,85.0 L 99.6,83.5 L 94.9,81.7 L 90.7,79.7 L 87.2,77.6 L 84.1,75.4 L 81.4,73.2 L 78.9,71.0 L 76.5,68.8 L 74.2,66.6 L 71.7,64.5 L 69.1,62.3 L 66.2,60.2 L 63.0,58.2 L 59.5,56.3 L 55.7,54.7 L 51.5,53.3 L 47.0,52.2 L 42.2,51.6 L 37.1,51.3 L 31.6,51.4 L 25.8,52.0 L 19.6,52.9 L 12.9,54.2 L 12.9,55.2 L 19.5,56.3 L 25.4,57.8 L 30.5,59.5 L 34.9,61.4 L 38.7,63.4 L 42.1,65.4 L 45.0,67.5 L 47.7,69.5 L 50.2,71.5 L 52.7,73.5 L 55.2,75.5 L 57.9,77.5 L 60.8,79.4 L 63.9,81.3 L 67.4,83.0 L 71.1,84.5 L 75.1,85.8 L 79.4,86.8 L 84.0,87.4 L 88.8,87.6 L 93.9,87.4 L 99.3,86.9 L 105.1,86.0 Z" fill="black" stroke="none"/>
<path d="M 112.8,105.6 L 101.3,105.2 L 90.6,104.8 L 80.7,104.4 L 71.7,104.0 L 63.5,103.8 L 56.1,103.5 L 49.7,103.3 L 44.1,103.3 L 39.3,103.2 L 35.5,103.3 L 32.5,103.5 L 30.5,103.7 L 29.6,103.9 L 33.2,121.5 L 32.0,121.4 L 33.3,120.5 L 35.5,119.4 L 38.7,118.0 L 42.7,116.3 L 47.6,114.4 L 53.5,112.3 L 60.2,109.9 L 67.8,107.3 L 67.6,106.4 L 59.6,106.5 L 52.5,106.5 L 46.3,106.4 L 41.1,106.1 L 36.7,105.8 L 33.3,105.5 L 30.8,105.1 L 29.1,104.7 L 26.8,104.8 L 31.0,122.4 L 32.4,122.4 L 34.5,122.2 L 37.4,121.8 L 41.1,121.0 L 45.7,120.1 L 51.2,118.9 L 57.4,117.6 L 64.6,116.0 L 72.5,114.3 L 81.4,112.5 L 91.0,110.6 L 101.5,108.6 L 112.9,106.6 Z" fill="black" stroke="none"/>
</g>
<g transform="translate(512 0) rotate(180 64.0 64.0)">
  <rect width="128" height="128" fill="white"/>
<path d="M 27.4,22.5 L 26.8,24.7 L 26.6,27.0 L 26.8,29.5 L 27.6,32.0 L 28.8,34.5 L 30.5,36.7 L 32.7,38.8 L 35.2,40.5 L 38.0,42.0 L 41.1,43.2 L 44.6,44.0 L 48.2,44.6 L 52.2,45.0 L 56.5,45.0 L 61.1,44.9 L 66.0,44.5 L 71.3,43.9 L 77.0,43.1 L 83.1,42.2 L 89.5,41.1 L 96.4,39.9 L 103.8,38.6 L 111.6,37.3 L 111.6,36.3 L 103.7,35.2 L 96.4,34.1 L 89.5,33.0 L 83.1,31.9 L 77.2,30.8 L 71.7,29.8 L 66.7,28.9 L 62.1,28.0 L 58.0,27.2 L 54.2,26.5 L 50.9,26.0 L 47.9,25.5 L 45.4,25.1 L 43.1,24.9 L 41.2,24.7 L 39.4,24.7 L 37.9,24.7 L 36.4,24.8 L 34.9,24.8 L 33.4,24.6 L 31.7,24.2 L 30.0,23.4 L 28.4,22.2 Z" fill="black" stroke="none"/>
<path d="M 116.0,77.6 L 110.8,78.4 L 106.0,79.0 L 101.6,79.6 L 97.6,80.0 L 93.9,80.4 L 90.5,80.7 L 87.4,81.0 L 84.6,81.2 L 81.9,81.5 L 79.4,81.8 L 76.9,82.2 L 74.4,82.6 L 71.8,83.2 L 68.9,83.8 L 65.9,84.5 L 62.4,85.3 L 58.7,86.2 L 54.5,87.2 L 49.8,88.2 L 44.7,89.2 L 39.0,90.3 L 32.7,91.4 L 25.8,92.5 L 25.8,93.5 L 32.6,94.8 L 38.9,96.2 L 44.6,97.4 L 49.8,98.5 L 54.6,99.5 L 59.0,100.3 L 63.1,101.0 L 66.9,101.4 L 70.6,101.6 L 74.0,101.6 L 77.4,101.3 L 80.6,100.7 L 83.7,99.8 L 86.7,98.7 L 89.6,97.4 L 92.5,95.8 L 95.3,93.9 L 98.3,91.9 L 101.3,89.6 L 104.6,87.1 L 108.2,84.5 L 112.0,81.6 L 116.3,78.6 Z" fill="black" stroke="none"/>
<path d="M 41.0,115.4 L 40.2,116.4 L 39.0,114.1 L 42.2,111.4 L 43.1,110.5 L 43.3,109.6 L 43.3,108.6 L 43.1,107.6 L 42.6,106.6 L 41.9,105.6 L 41.0,104.7 L 39.8,103.8 L 38.5,102.9 L 37.0,102.1 L 35.3,101.4 L 33.4,100.7 L 31.4,100.0 L 29.1,99.4 L 26.8,98.8 L 24.3,98.2 L 21.7,97.5 L 19.0,96.9 L 16.2,96.2 L 13.3,95.4 L 12.7,96.2 L 14.0,98.9 L 15.3,101.5 L 16.7,104.0 L 18.1,106.4 L 19.5,108.7 L 20.9,110.8 L 22.3,112.8 L 23.8,114.6 L 25.3,116.2 L 26.8,117.6 L 28.3,118.8 L 29.8,119.8 L 31.3,120.5 L 32.8,121.0 L 34.2,121.2 L 35.5,121.3 L 36.9,121.1 L 38.1,120.7 L 39.3,120.2 L 40.7,119.4 L 44.2,116.8 L 42.9,114.2 L 41.6,114.7 Z" fill="black" stroke="none"/>
<path d="M 13.0,14.0 L 20.8,15.1 L 28.2,16.1 L 35.5,17.1 L 42.4,18.1 L 49.1,18.9 L 55.5,19.7 L 61.6,20.4 L 67.4,20.9 L 72.9,21.3 L 78.1,21.6 L 82.9,21.8 L 87.5,21.8 L 91.7,21.8 L 95.6,21.5 L 99.2,21.2 L 102.4,20.8 L 105.4,20.3 L 108.0,19.8 L 110.3,19.2 L 112.3,18.5 L 114.2,17.9 L 115.8,17.4 L 117.4,17.0 L 118.1,16.3 L 117.5,14.4 L 116.3,12.5 L 114.6,10.7 L 112.4,9.1 L 109.8,7.6 L 106.9,6.3 L 103.7,5.2 L 100.2,4.3 L 96.3,3.7 L 92.2,3.2 L 87.7,3.0 L 83.0,2.9 L 78.0,3.1 L 72.7,3.5 L 67.2,4.0 L 61.3,4.7 L 55.2,5.6 L 48.9,6.6 L 42.2,7.8 L 35.3,9.0 L 28.1,10.3 L 20.7,11.6 L 13.0,13.0 Z" fill="black" stroke="none"/>
<path d="M 124.2,53.9 L 121.3,53.5 L 118.3,53.2 L 115.2,52.9 L 112.1,52.6 L 108.8,52.4 L 105.6,52.3 L 102.2,52.2 L 98.8,52.3 L 95.4,52.5 L 91.9,52.7 L 88.4,53.1 L 84.8,53.7 L 81.2,54.3 L 77.6,55.1 L 73.9,55.9 L 70.1,56.9 L 66.3,58.0 L 62.5,59.1 L 58.6,60.2 L 54.7,61.4 L 50.7,62.5 L 46.7,63.7 L 42.6,64.7 L 42.5,65.7 L 46.6,67.1 L 50.6,68.4 L 54.8,69.5 L 58.9,70.5 L 63.1,71.4 L 67.2,72.0 L 71.4,72.5 L 75.5,72.8 L 79.5,72.9 L 83.5,72.7 L 87.5,72.4 L 91.3,71.8 L 95.0,71.0 L 98.7,70.0 L 102.2,68.9 L 105.5,67.5 L 108.7,66.0 L 111.8,64.4 L 114.7,62.6 L 117.4,60.7 L 120.0,58.8 L 122.3,56.8 L 124.5,54.8 Z" fill="black" stroke="none"/>
<path d="M 116.6,99.6 L 112.4,101.3 L 108.5,102.8 L 105.0,103.9 L 101.8,104.9 L 98.8,105.6 L 96.2,106.2 L 93.8,106.6 L 91.7,106.8 L 89.8,107.1 L 88.0,107.3 L 86.2,107.5 L 84.3,107.8 L 82.2,108.1 L 79.8,108.6 L 77.1,109.1 L 74.0,109.6 L 70.5,110.2 L 66.6,110.8 L 62.2,111.4 L 57.4,112.0 L 52.2,112.7 L 46.4,113.3 L 40.1,114.0 L 40.0,115.0 L 46.1,116.8 L 51.6,118.5 L 56.7,120.1 L 61.3,121.7 L 65.6,123.0 L 69.6,124.2 L 73.3,125.2 L 76.8,126.0 L 80.2,126.5 L 83.4,126.7 L 86.6,126.5 L 89.7,126.0 L 92.8,125.2 L 95.6,124.0 L 98.3,122.4 L 100.8,120.6 L 103.2,118.4 L 105.4,116.0 L 107.6,113.4 L 109.8,110.5 L 112.1,107.4 L 114.5,104.0 L 117.2,100.4 Z" fill="black" stroke="none"/>
</g>
</svg></g>
  <!-- rotated -->
  <text x="984" y="16" font-family="monospace" font-size="11" fill="#999" text-anchor="middle" letter-spacing="3">ROTATED 180°</text>
  <g transform="translate(664 20)"><svg xmlns="http://www.w3.org/2000/svg" viewBox="0 0 640 128" style="width: 100%; height: auto; max-width: 480px; max-height: 130px;">
<rect width="640" height="128" fill="white"/>
<g transform="rotate(180 320.0 64.0)">
<g transform="translate(0 0)">
  <rect width="128" height="128" fill="white"/>
<path d="M 27.4,22.5 L 26.8,24.7 L 26.6,27.0 L 26.8,29.5 L 27.6,32.0 L 28.8,34.5 L 30.5,36.7 L 32.7,38.8 L 35.2,40.5 L 38.0,42.0 L 41.1,43.2 L 44.6,44.0 L 48.2,44.6 L 52.2,45.0 L 56.5,45.0 L 61.1,44.9 L 66.0,44.5 L 71.3,43.9 L 77.0,43.1 L 83.1,42.2 L 89.5,41.1 L 96.4,39.9 L 103.8,38.6 L 111.6,37.3 L 111.6,36.3 L 103.7,35.2 L 96.4,34.1 L 89.5,33.0 L 83.1,31.9 L 77.2,30.8 L 71.7,29.8 L 66.7,28.9 L 62.1,28.0 L 58.0,27.2 L 54.2,26.5 L 50.9,26.0 L 47.9,25.5 L 45.4,25.1 L 43.1,24.9 L 41.2,24.7 L 39.4,24.7 L 37.9,24.7 L 36.4,24.8 L 34.9,24.8 L 33.4,24.6 L 31.7,24.2 L 30.0,23.4 L 28.4,22.2 Z" fill="black" stroke="none"/>
<path d="M 116.0,77.6 L 110.8,78.4 L 106.0,79.0 L 101.6,79.6 L 97.6,80.0 L 93.9,80.4 L 90.5,80.7 L 87.4,81.0 L 84.6,81.2 L 81.9,81.5 L 79.4,81.8 L 76.9,82.2 L 74.4,82.6 L 71.8,83.2 L 68.9,83.8 L 65.9,84.5 L 62.4,85.3 L 58.7,86.2 L 54.5,87.2 L 49.8,88.2 L 44.7,89.2 L 39.0,90.3 L 32.7,91.4 L 25.8,92.5 L 25.8,93.5 L 32.6,94.8 L 38.9,96.2 L 44.6,97.4 L 49.8,98.5 L 54.6,99.5 L 59.0,100.3 L 63.1,101.0 L 66.9,101.4 L 70.6,101.6 L 74.0,101.6 L 77.4,101.3 L 80.6,100.7 L 83.7,99.8 L 86.7,98.7 L 89.6,97.4 L 92.5,95.8 L 95.3,93.9 L 98.3,91.9 L 101.3,89.6 L 104.6,87.1 L 108.2,84.5 L 112.0,81.6 L 116.3,78.6 Z" fill="black" stroke="none"/>
<path d="M 41.0,115.4 L 40.2,116.4 L 39.0,114.1 L 42.2,111.4 L 43.1,110.5 L 43.3,109.6 L 43.3,108.6 L 43.1,107.6 L 42.6,106.6 L 41.9,105.6 L 41.0,104.7 L 39.8,103.8 L 38.5,102.9 L 37.0,102.1 L 35.3,101.4 L 33.4,100.7 L 31.4,100.0 L 29.1,99.4 L 26.8,98.8 L 24.3,98.2 L 21.7,97.5 L 19.0,96.9 L 16.2,96.2 L 13.3,95.4 L 12.7,96.2 L 14.0,98.9 L 15.3,101.5 L 16.7,104.0 L 18.1,106.4 L 19.5,108.7 L 20.9,110.8 L 22.3,112.8 L 23.8,114.6 L 25.3,116.2 L 26.8,117.6 L 28.3,118.8 L 29.8,119.8 L 31.3,120.5 L 32.8,121.0 L 34.2,121.2 L 35.5,121.3 L 36.9,121.1 L 38.1,120.7 L 39.3,120.2 L 40.7,119.4 L 44.2,116.8 L 42.9,114.2 L 41.6,114.7 Z" fill="black" stroke="none"/>
<path d="M 13.0,14.0 L 20.8,15.1 L 28.2,16.1 L 35.5,17.1 L 42.4,18.1 L 49.1,18.9 L 55.5,19.7 L 61.6,20.4 L 67.4,20.9 L 72.9,21.3 L 78.1,21.6 L 82.9,21.8 L 87.5,21.8 L 91.7,21.8 L 95.6,21.5 L 99.2,21.2 L 102.4,20.8 L 105.4,20.3 L 108.0,19.8 L 110.3,19.2 L 112.3,18.5 L 114.2,17.9 L 115.8,17.4 L 117.4,17.0 L 118.1,16.3 L 117.5,14.4 L 116.3,12.5 L 114.6,10.7 L 112.4,9.1 L 109.8,7.6 L 106.9,6.3 L 103.7,5.2 L 100.2,4.3 L 96.3,3.7 L 92.2,3.2 L 87.7,3.0 L 83.0,2.9 L 78.0,3.1 L 72.7,3.5 L 67.2,4.0 L 61.3,4.7 L 55.2,5.6 L 48.9,6.6 L 42.2,7.8 L 35.3,9.0 L 28.1,10.3 L 20.7,11.6 L 13.0,13.0 Z" fill="black" stroke="none"/>
<path d="M 124.2,53.9 L 121.3,53.5 L 118.3,53.2 L 115.2,52.9 L 112.1,52.6 L 108.8,52.4 L 105.6,52.3 L 102.2,52.2 L 98.8,52.3 L 95.4,52.5 L 91.9,52.7 L 88.4,53.1 L 84.8,53.7 L 81.2,54.3 L 77.6,55.1 L 73.9,55.9 L 70.1,56.9 L 66.3,58.0 L 62.5,59.1 L 58.6,60.2 L 54.7,61.4 L 50.7,62.5 L 46.7,63.7 L 42.6,64.7 L 42.5,65.7 L 46.6,67.1 L 50.6,68.4 L 54.8,69.5 L 58.9,70.5 L 63.1,71.4 L 67.2,72.0 L 71.4,72.5 L 75.5,72.8 L 79.5,72.9 L 83.5,72.7 L 87.5,72.4 L 91.3,71.8 L 95.0,71.0 L 98.7,70.0 L 102.2,68.9 L 105.5,67.5 L 108.7,66.0 L 111.8,64.4 L 114.7,62.6 L 117.4,60.7 L 120.0,58.8 L 122.3,56.8 L 124.5,54.8 Z" fill="black" stroke="none"/>
<path d="M 116.6,99.6 L 112.4,101.3 L 108.5,102.8 L 105.0,103.9 L 101.8,104.9 L 98.8,105.6 L 96.2,106.2 L 93.8,106.6 L 91.7,106.8 L 89.8,107.1 L 88.0,107.3 L 86.2,107.5 L 84.3,107.8 L 82.2,108.1 L 79.8,108.6 L 77.1,109.1 L 74.0,109.6 L 70.5,110.2 L 66.6,110.8 L 62.2,111.4 L 57.4,112.0 L 52.2,112.7 L 46.4,113.3 L 40.1,114.0 L 40.0,115.0 L 46.1,116.8 L 51.6,118.5 L 56.7,120.1 L 61.3,121.7 L 65.6,123.0 L 69.6,124.2 L 73.3,125.2 L 76.8,126.0 L 80.2,126.5 L 83.4,126.7 L 86.6,126.5 L 89.7,126.0 L 92.8,125.2 L 95.6,124.0 L 98.3,122.4 L 100.8,120.6 L 103.2,118.4 L 105.4,116.0 L 107.6,113.4 L 109.8,110.5 L 112.1,107.4 L 114.5,104.0 L 117.2,100.4 Z" fill="black" stroke="none"/>
</g>
<g transform="translate(128 0)">
  <rect width="128" height="128" fill="white"/>
<path d="M 12.9,34.4 L 15.6,31.1 L 18.2,28.4 L 20.7,26.2 L 23.1,24.6 L 25.2,23.5 L 27.1,23.0 L 28.8,22.7 L 30.4,22.6 L 32.2,22.5 L 34.2,22.4 L 36.7,22.2 L 39.8,22.0 L 43.4,21.8 L 47.6,21.6 L 52.4,21.3 L 57.8,21.1 L 63.9,20.8 L 70.6,20.4 L 78.0,20.0 L 86.1,19.5 L 94.9,18.9 L 104.4,18.3 L 114.7,17.5 L 114.7,16.5 L 104.6,14.8 L 95.2,13.1 L 86.7,11.3 L 78.8,9.7 L 71.6,8.1 L 65.0,6.7 L 59.0,5.5 L 53.4,4.5 L 48.3,3.7 L 43.6,3.3 L 39.1,3.1 L 34.9,3.4 L 31.0,4.1 L 27.2,5.3 L 23.8,7.0 L 20.7,9.3 L 18.2,12.1 L 16.2,15.2 L 14.7,18.5 L 13.7,22.0 L 13.0,25.7 L 12.5,29.7 L 12.0,34.1 Z" fill="black" stroke="none"/>
<path d="M 0.4,79.1 L 6.1,81.4 L 11.4,83.5 L 16.4,85.5 L 21.2,87.2 L 25.8,88.8 L 30.2,90.1 L 34.4,91.2 L 38.5,92.0 L 42.5,92.5 L 46.4,92.8 L 50.1,92.8 L 53.8,92.4 L 57.4,91.8 L 60.8,90.9 L 64.1,89.7 L 67.3,88.2 L 70.4,86.5 L 73.4,84.6 L 76.4,82.5 L 79.4,80.2 L 82.3,77.8 L 85.4,75.3 L 88.5,72.6 L 88.1,71.7 L 84.0,72.1 L 80.1,72.4 L 76.4,72.7 L 72.9,72.8 L 69.5,72.9 L 66.3,73.0 L 63.3,73.1 L 60.3,73.2 L 57.4,73.3 L 54.6,73.5 L 51.7,73.7 L 48.8,73.9 L 45.7,74.3 L 42.5,74.7 L 39.0,75.1 L 35.4,75.6 L 31.4,76.0 L 27.1,76.5 L 22.6,77.0 L 17.6,77.4 L 12.3,77.8 L 6.7,78.0 L 0.6,78.2 Z" fill="black" stroke="none"/>
<path d="M 3.2,115.2 L 6.0,114.5 L 8.6,114.3 L 11.1,114.3 L 13.5,114.6 L 15.9,115.0 L 18.4,115.4 L 21.0,115.9 L 23.8,116.4 L 27.0,116.9 L 30.5,117.4 L 34.3,117.8 L 38.6,118.1 L 43.3,118.3 L 48.4,118.4 L 54.0,118.5 L 60.0,118.4 L 66.5,118.1 L 73.5,117.8 L 80.9,117.3 L 88.9,116.6 L 97.4,115.9 L 106.4,115.0 L 115.9,114.0 L 115.9,113.0 L 106.5,111.5 L 97.6,110.1 L 89.3,108.5 L 81.6,107.0 L 74.4,105.5 L 67.7,104.1 L 61.4,102.8 L 55.6,101.6 L 50.1,100.6 L 45.0,99.8 L 40.2,99.3 L 35.6,98.9 L 31.3,98.8 L 27.3,99.0 L 23.4,99.5 L 19.8,100.3 L 16.4,101.5 L 13.2,102.9 L 10.4,104.7 L 7.9,106.8 L 5.7,109.2 L 4.0,111.8 L 2.6,114.5 Z" fill="black" stroke="none"/>
<path d="M 36.9,35.5 L 42.4,37.8 L 47.4,40.0 L 52.0,42.1 L 56.2,44.0 L 60.0,45.7 L 63.4,47.3 L 66.6,48.6 L 69.6,49.7 L 72.3,50.7 L 74.9,51.3 L 77.3,51.8 L 79.7,52.0 L 81.9,52.0 L 84.0,51.7 L 86.0,51.3 L 88.0,50.6 L 89.9,49.7 L 91.7,48.6 L 93.4,47.4 L 95.2,46.1 L 97.0,44.7 L 99.0,43.2 L 101.1,41.6 L 100.9,40.6 L 98.4,39.8 L 96.2,38.9 L 94.1,38.1 L 92.2,37.2 L 90.4,36.4 L 88.8,35.6 L 87.3,35.0 L 85.9,34.4 L 84.4,33.9 L 82.9,33.5 L 81.2,33.2 L 79.3,33.0 L 77.3,32.9 L 74.9,33.0 L 72.3,33.0 L 69.3,33.2 L 65.9,33.4 L 62.2,33.6 L 58.1,33.9 L 53.5,34.1 L 48.5,34.3 L 43.1,34.5 L 37.1,34.5 Z" fill="black" stroke="none"/>
<path d="M 105.1,85.0 L 99.6,83.5 L 94.9,81.7 L 90.7,79.7 L 87.2,77.6 L 84.1,75.4 L 81.4,73.2 L 78.9,71.0 L 76.5,68.8 L 74.2,66.6 L 71.7,64.5 L 69.1,62.3 L 66.2,60.2 L 63.0,58.2 L 59.5,56.3 L 55.7,54.7 L 51.5,53.3 L 47.0,52.2 L 42.2,51.6 L 37.1,51.3 L 31.6,51.4 L 25.8,52.0 L 19.6,52.9 L 12.9,54.2 L 12.9,55.2 L 19.5,56.3 L 25.4,57.8 L 30.5,59.5 L 34.9,61.4 L 38.7,63.4 L 42.1,65.4 L 45.0,67.5 L 47.7,69.5 L 50.2,71.5 L 52.7,73.5 L 55.2,75.5 L 57.9,77.5 L 60.8,79.4 L 63.9,81.3 L 67.4,83.0 L 71.1,84.5 L 75.1,85.8 L 79.4,86.8 L 84.0,87.4 L 88.8,87.6 L 93.9,87.4 L 99.3,86.9 L 105.1,86.0 Z" fill="black" stroke="none"/>
<path d="M 112.8,105.6 L 101.3,105.2 L 90.6,104.8 L 80.7,104.4 L 71.7,104.0 L 63.5,103.8 L 56.1,103.5 L 49.7,103.3 L 44.1,103.3 L 39.3,103.2 L 35.5,103.3 L 32.5,103.5 L 30.5,103.7 L 29.6,103.9 L 33.2,121.5 L 32.0,121.4 L 33.3,120.5 L 35.5,119.4 L 38.7,118.0 L 42.7,116.3 L 47.6,114.4 L 53.5,112.3 L 60.2,109.9 L 67.8,107.3 L 67.6,106.4 L 59.6,106.5 L 52.5,106.5 L 46.3,106.4 L 41.1,106.1 L 36.7,105.8 L 33.3,105.5 L 30.8,105.1 L 29.1,104.7 L 26.8,104.8 L 31.0,122.4 L 32.4,122.4 L 34.5,122.2 L 37.4,121.8 L 41.1,121.0 L 45.7,120.1 L 51.2,118.9 L 57.4,117.6 L 64.6,116.0 L 72.5,114.3 L 81.4,112.5 L 91.0,110.6 L 101.5,108.6 L 112.9,106.6 Z" fill="black" stroke="none"/>
</g>
<g transform="translate(256 0)">
  <rect width="128" height="128" fill="white"/>
<path d="M 17.7,21.6 L 20.2,21.4 L 23.0,21.4 L 26.0,21.5 L 29.2,21.6 L 32.8,21.7 L 36.5,21.8 L 40.5,21.9 L 44.7,22.0 L 49.1,22.0 L 53.6,22.0 L 58.3,21.9 L 63.0,21.7 L 67.8,21.5 L 72.6,21.3 L 77.5,21.0 L 82.4,20.7 L 87.2,20.4 L 92.0,20.1 L 96.6,19.8 L 101.2,19.6 L 105.7,19.5 L 110.0,19.5 L 114.2,19.6 L 114.6,18.7 L 111.1,16.2 L 107.2,13.8 L 103.0,11.6 L 98.4,9.7 L 93.7,7.9 L 88.7,6.4 L 83.6,5.1 L 78.4,4.1 L 73.2,3.4 L 67.9,3.0 L 62.6,2.9 L 57.4,3.0 L 52.3,3.5 L 47.4,4.2 L 42.7,5.2 L 38.2,6.5 L 33.9,8.0 L 30.0,9.7 L 26.4,11.7 L 23.3,13.8 L 20.7,16.0 L 18.6,18.4 L 17.1,20.8 Z" fill="black" stroke="none"/>
<path d="M 67.3,58.1 L 67.3,60.5 L 67.5,62.8 L 68.0,65.0 L 68.7,67.2 L 69.7,69.2 L 70.9,71.0 L 72.2,72.6 L 73.5,74.0 L 74.9,75.2 L 76.3,76.2 L 77.8,77.1 L 79.4,77.9 L 81.0,78.6 L 82.9,79.4 L 85.0,80.2 L 87.4,81.2 L 90.0,82.3 L 93.0,83.8 L 96.2,85.5 L 99.8,87.6 L 103.6,90.2 L 107.7,93.3 L 112.0,96.9 L 112.8,96.3 L 110.4,91.1 L 108.0,86.4 L 105.8,82.1 L 103.5,78.2 L 101.4,74.7 L 99.2,71.6 L 97.0,68.8 L 94.8,66.4 L 92.6,64.3 L 90.4,62.6 L 88.2,61.2 L 86.2,60.2 L 84.3,59.4 L 82.5,59.0 L 80.9,58.7 L 79.4,58.7 L 78.0,58.8 L 76.7,59.0 L 75.3,59.2 L 73.7,59.3 L 72.0,59.1 L 70.2,58.6 L 68.2,57.6 Z" fill="black" stroke="none"/>
<path d="M 15.6,64.8 L 17.9,69.8 L 20.3,74.5 L 22.8,78.8 L 25.6,82.8 L 28.6,86.5 L 31.7,89.8 L 35.0,92.8 L 38.5,95.3 L 42.0,97.4 L 45.6,99.1 L 49.1,100.4 L 52.7,101.3 L 56.1,101.8 L 59.5,101.9 L 62.6,101.7 L 65.6,101.2 L 68.4,100.5 L 70.9,99.6 L 73.1,98.5 L 75.1,97.2 L 76.9,95.9 L 78.4,94.6 L 79.6,93.2 L 79.5,92.2 L 78.0,91.1 L 76.3,90.1 L 74.5,89.1 L 72.5,88.2 L 70.4,87.3 L 68.3,86.4 L 66.1,85.6 L 63.9,84.8 L 61.6,84.1 L 59.2,83.5 L 56.7,82.8 L 54.2,82.2 L 51.6,81.5 L 48.8,80.9 L 45.9,80.1 L 42.8,79.2 L 39.5,78.1 L 36.0,76.7 L 32.4,75.0 L 28.5,73.0 L 24.6,70.6 L 20.5,67.6 L 16.4,64.2 Z" fill="black" stroke="none"/>
<path d="M 13.4,109.3 L 16.9,111.8 L 20.8,114.2 L 25.0,116.4 L 29.6,118.3 L 34.3,120.1 L 39.3,121.6 L 44.4,122.9 L 49.6,123.9 L 54.8,124.6 L 60.1,125.0 L 65.4,125.1 L 70.6,125.0 L 75.7,124.5 L 80.6,123.8 L 85.3,122.8 L 89.8,121.5 L 94.1,120.0 L 98.0,118.3 L 101.6,116.3 L 104.7,114.2 L 107.3,112.0 L 109.4,109.6 L 110.9,107.2 L 110.3,106.4 L 107.8,106.6 L 105.0,106.6 L 102.0,106.5 L 98.8,106.4 L 95.2,106.3 L 91.5,106.2 L 87.5,106.1 L 83.3,106.0 L 78.9,106.0 L 74.4,106.0 L 69.7,106.1 L 65.0,106.3 L 60.2,106.5 L 55.4,106.7 L 50.5,107.0 L 45.6,107.3 L 40.8,107.6 L 36.0,107.9 L 31.4,108.2 L 26.8,108.4 L 22.3,108.5 L 18.0,108.5 L 13.8,108.4 Z" fill="black" stroke="none"/>
<path d="M 15.2,31.7 L 17.6,36.9 L 20.0,41.6 L 22.2,45.9 L 24.5,49.8 L 26.6,53.3 L 28.8,56.4 L 31.0,59.2 L 33.2,61.6 L 35.4,63.7 L 37.6,65.4 L 39.8,66.8 L 41.8,67.8 L 43.7,68.6 L 45.5,69.0 L 47.1,69.3 L 48.6,69.3 L 50.0,69.2 L 51.3,69.0 L 52.7,68.8 L 54.3,68.7 L 56.0,68.9 L 57.8,69.4 L 59.8,70.4 L 60.7,69.9 L 60.7,67.5 L 60.5,65.2 L 60.0,63.0 L 59.3,60.8 L 58.3,58.8 L 57.1,57.0 L 55.8,55.4 L 54.5,54.0 L 53.1,52.8 L 51.7,51.8 L 50.2,50.9 L 48.6,50.1 L 47.0,49.4 L 45.1,48.6 L 43.0,47.8 L 40.6,46.8 L 38.0,45.7 L 35.0,44.2 L 31.8,42.5 L 28.2,40.4 L 24.4,37.8 L 20.3,34.7 L 16.0,31.1 Z" fill="black" stroke="none"/>
<path d="M 48.5,35.8 L 50.0,36.9 L 51.7,37.9 L 53.5,38.9 L 55.5,39.8 L 57.6,40.7 L 59.7,41.6 L 61.9,42.4 L 64.1,43.2 L 66.4,43.9 L 68.8,44.5 L 71.3,45.2 L 73.8,45.8 L 76.4,46.5 L 79.2,47.1 L 82.1,47.9 L 85.2,48.8 L 88.5,49.9 L 92.0,51.3 L 95.6,53.0 L 99.5,55.0 L 103.4,57.4 L 107.5,60.4 L 111.6,63.8 L 112.4,63.2 L 110.1,58.2 L 107.7,53.5 L 105.2,49.2 L 102.4,45.2 L 99.4,41.5 L 96.3,38.2 L 93.0,35.2 L 89.5,32.7 L 86.0,30.6 L 82.4,28.9 L 78.9,27.6 L 75.3,26.7 L 71.9,26.2 L 68.5,26.1 L 65.4,26.3 L 62.4,26.8 L 59.6,27.5 L 57.1,28.4 L 54.9,29.5 L 52.9,30.8 L 51.1,32.1 L 49.6,33.4 L 48.4,34.8 Z" fill="black" stroke="none"/>
</g>
<g transform="translate(384 0) rotate(180 64.0 64.0)">
  <rect width="128" height="128" fill="white"/>
<path d="M 12.9,34.4 L 15.6,31.1 L 18.2,28.4 L 20.7,26.2 L 23.1,24.6 L 25.2,23.5 L 27.1,23.0 L 28.8,22.7 L 30.4,22.6 L 32.2,22.5 L 34.2,22.4 L 36.7,22.2 L 39.8,22.0 L 43.4,21.8 L 47.6,21.6 L 52.4,21.3 L 57.8,21.1 L 63.9,20.8 L 70.6,20.4 L 78.0,20.0 L 86.1,19.5 L 94.9,18.9 L 104.4,18.3 L 114.7,17.5 L 114.7,16.5 L 104.6,14.8 L 95.2,13.1 L 86.7,11.3 L 78.8,9.7 L 71.6,8.1 L 65.0,6.7 L 59.0,5.5 L 53.4,4.5 L 48.3,3.7 L 43.6,3.3 L 39.1,3.1 L 34.9,3.4 L 31.0,4.1 L 27.2,5.3 L 23.8,7.0 L 20.7,9.3 L 18.2,12.1 L 16.2,15.2 L 14.7,18.5 L 13.7,22.0 L 13.0,25.7 L 12.5,29.7 L 12.0,34.1 Z" fill="black" stroke="none"/>
<path d="M 0.4,79.1 L 6.1,81.4 L 11.4,83.5 L 16.4,85.5 L 21.2,87.2 L 25.8,88.8 L 30.2,90.1 L 34.4,91.2 L 38.5,92.0 L 42.5,92.5 L 46.4,92.8 L 50.1,92.8 L 53.8,92.4 L 57.4,91.8 L 60.8,90.9 L 64.1,89.7 L 67.3,88.2 L 70.4,86.5 L 73.4,84.6 L 76.4,82.5 L 79.4,80.2 L 82.3,77.8 L 85.4,75.3 L 88.5,72.6 L 88.1,71.7 L 84.0,72.1 L 80.1,72.4 L 76.4,72.7 L 72.9,72.8 L 69.5,72.9 L 66.3,73.0 L 63.3,73.1 L 60.3,73.2 L 57.4,73.3 L 54.6,73.5 L 51.7,73.7 L 48.8,73.9 L 45.7,74.3 L 42.5,74.7 L 39.0,75.1 L 35.4,75.6 L 31.4,76.0 L 27.1,76.5 L 22.6,77.0 L 17.6,77.4 L 12.3,77.8 L 6.7,78.0 L 0.6,78.2 Z" fill="black" stroke="none"/>
<path d="M 3.2,115.2 L 6.0,114.5 L 8.6,114.3 L 11.1,114.3 L 13.5,114.6 L 15.9,115.0 L 18.4,115.4 L 21.0,115.9 L 23.8,116.4 L 27.0,116.9 L 30.5,117.4 L 34.3,117.8 L 38.6,118.1 L 43.3,118.3 L 48.4,118.4 L 54.0,118.5 L 60.0,118.4 L 66.5,118.1 L 73.5,117.8 L 80.9,117.3 L 88.9,116.6 L 97.4,115.9 L 106.4,115.0 L 115.9,114.0 L 115.9,113.0 L 106.5,111.5 L 97.6,110.1 L 89.3,108.5 L 81.6,107.0 L 74.4,105.5 L 67.7,104.1 L 61.4,102.8 L 55.6,101.6 L 50.1,100.6 L 45.0,99.8 L 40.2,99.3 L 35.6,98.9 L 31.3,98.8 L 27.3,99.0 L 23.4,99.5 L 19.8,100.3 L 16.4,101.5 L 13.2,102.9 L 10.4,104.7 L 7.9,106.8 L 5.7,109.2 L 4.0,111.8 L 2.6,114.5 Z" fill="black" stroke="none"/>
<path d="M 36.9,35.5 L 42.4,37.8 L 47.4,40.0 L 52.0,42.1 L 56.2,44.0 L 60.0,45.7 L 63.4,47.3 L 66.6,48.6 L 69.6,49.7 L 72.3,50.7 L 74.9,51.3 L 77.3,51.8 L 79.7,52.0 L 81.9,52.0 L 84.0,51.7 L 86.0,51.3 L 88.0,50.6 L 89.9,49.7 L 91.7,48.6 L 93.4,47.4 L 95.2,46.1 L 97.0,44.7 L 99.0,43.2 L 101.1,41.6 L 100.9,40.6 L 98.4,39.8 L 96.2,38.9 L 94.1,38.1 L 92.2,37.2 L 90.4,36.4 L 88.8,35.6 L 87.3,35.0 L 85.9,34.4 L 84.4,33.9 L 82.9,33.5 L 81.2,33.2 L 79.3,33.0 L 77.3,32.9 L 74.9,33.0 L 72.3,33.0 L 69.3,33.2 L 65.9,33.4 L 62.2,33.6 L 58.1,33.9 L 53.5,34.1 L 48.5,34.3 L 43.1,34.5 L 37.1,34.5 Z" fill="black" stroke="none"/>
<path d="M 105.1,85.0 L 99.6,83.5 L 94.9,81.7 L 90.7,79.7 L 87.2,77.6 L 84.1,75.4 L 81.4,73.2 L 78.9,71.0 L 76.5,68.8 L 74.2,66.6 L 71.7,64.5 L 69.1,62.3 L 66.2,60.2 L 63.0,58.2 L 59.5,56.3 L 55.7,54.7 L 51.5,53.3 L 47.0,52.2 L 42.2,51.6 L 37.1,51.3 L 31.6,51.4 L 25.8,52.0 L 19.6,52.9 L 12.9,54.2 L 12.9,55.2 L 19.5,56.3 L 25.4,57.8 L 30.5,59.5 L 34.9,61.4 L 38.7,63.4 L 42.1,65.4 L 45.0,67.5 L 47.7,69.5 L 50.2,71.5 L 52.7,73.5 L 55.2,75.5 L 57.9,77.5 L 60.8,79.4 L 63.9,81.3 L 67.4,83.0 L 71.1,84.5 L 75.1,85.8 L 79.4,86.8 L 84.0,87.4 L 88.8,87.6 L 93.9,87.4 L 99.3,86.9 L 105.1,86.0 Z" fill="black" stroke="none"/>
<path d="M 112.8,105.6 L 101.3,105.2 L 90.6,104.8 L 80.7,104.4 L 71.7,104.0 L 63.5,103.8 L 56.1,103.5 L 49.7,103.3 L 44.1,103.3 L 39.3,103.2 L 35.5,103.3 L 32.5,103.5 L 30.5,103.7 L 29.6,103.9 L 33.2,121.5 L 32.0,121.4 L 33.3,120.5 L 35.5,119.4 L 38.7,118.0 L 42.7,116.3 L 47.6,114.4 L 53.5,112.3 L 60.2,109.9 L 67.8,107.3 L 67.6,106.4 L 59.6,106.5 L 52.5,106.5 L 46.3,106.4 L 41.1,106.1 L 36.7,105.8 L 33.3,105.5 L 30.8,105.1 L 29.1,104.7 L 26.8,104.8 L 31.0,122.4 L 32.4,122.4 L 34.5,122.2 L 37.4,121.8 L 41.1,121.0 L 45.7,120.1 L 51.2,118.9 L 57.4,117.6 L 64.6,116.0 L 72.5,114.3 L 81.4,112.5 L 91.0,110.6 L 101.5,108.6 L 112.9,106.6 Z" fill="black" stroke="none"/>
</g>
<g transform="translate(512 0) rotate(180 64.0 64.0)">
  <rect width="128" height="128" fill="white"/>
<path d="M 27.4,22.5 L 26.8,24.7 L 26.6,27.0 L 26.8,29.5 L 27.6,32.0 L 28.8,34.5 L 30.5,36.7 L 32.7,38.8 L 35.2,40.5 L 38.0,42.0 L 41.1,43.2 L 44.6,44.0 L 48.2,44.6 L 52.2,45.0 L 56.5,45.0 L 61.1,44.9 L 66.0,44.5 L 71.3,43.9 L 77.0,43.1 L 83.1,42.2 L 89.5,41.1 L 96.4,39.9 L 103.8,38.6 L 111.6,37.3 L 111.6,36.3 L 103.7,35.2 L 96.4,34.1 L 89.5,33.0 L 83.1,31.9 L 77.2,30.8 L 71.7,29.8 L 66.7,28.9 L 62.1,28.0 L 58.0,27.2 L 54.2,26.5 L 50.9,26.0 L 47.9,25.5 L 45.4,25.1 L 43.1,24.9 L 41.2,24.7 L 39.4,24.7 L 37.9,24.7 L 36.4,24.8 L 34.9,24.8 L 33.4,24.6 L 31.7,24.2 L 30.0,23.4 L 28.4,22.2 Z" fill="black" stroke="none"/>
<path d="M 116.0,77.6 L 110.8,78.4 L 106.0,79.0 L 101.6,79.6 L 97.6,80.0 L 93.9,80.4 L 90.5,80.7 L 87.4,81.0 L 84.6,81.2 L 81.9,81.5 L 79.4,81.8 L 76.9,82.2 L 74.4,82.6 L 71.8,83.2 L 68.9,83.8 L 65.9,84.5 L 62.4,85.3 L 58.7,86.2 L 54.5,87.2 L 49.8,88.2 L 44.7,89.2 L 39.0,90.3 L 32.7,91.4 L 25.8,92.5 L 25.8,93.5 L 32.6,94.8 L 38.9,96.2 L 44.6,97.4 L 49.8,98.5 L 54.6,99.5 L 59.0,100.3 L 63.1,101.0 L 66.9,101.4 L 70.6,101.6 L 74.0,101.6 L 77.4,101.3 L 80.6,100.7 L 83.7,99.8 L 86.7,98.7 L 89.6,97.4 L 92.5,95.8 L 95.3,93.9 L 98.3,91.9 L 101.3,89.6 L 104.6,87.1 L 108.2,84.5 L 112.0,81.6 L 116.3,78.6 Z" fill="black" stroke="none"/>
<path d="M 41.0,115.4 L 40.2,116.4 L 39.0,114.1 L 42.2,111.4 L 43.1,110.5 L 43.3,109.6 L 43.3,108.6 L 43.1,107.6 L 42.6,106.6 L 41.9,105.6 L 41.0,104.7 L 39.8,103.8 L 38.5,102.9 L 37.0,102.1 L 35.3,101.4 L 33.4,100.7 L 31.4,100.0 L 29.1,99.4 L 26.8,98.8 L 24.3,98.2 L 21.7,97.5 L 19.0,96.9 L 16.2,96.2 L 13.3,95.4 L 12.7,96.2 L 14.0,98.9 L 15.3,101.5 L 16.7,104.0 L 18.1,106.4 L 19.5,108.7 L 20.9,110.8 L 22.3,112.8 L 23.8,114.6 L 25.3,116.2 L 26.8,117.6 L 28.3,118.8 L 29.8,119.8 L 31.3,120.5 L 32.8,121.0 L 34.2,121.2 L 35.5,121.3 L 36.9,121.1 L 38.1,120.7 L 39.3,120.2 L 40.7,119.4 L 44.2,116.8 L 42.9,114.2 L 41.6,114.7 Z" fill="black" stroke="none"/>
<path d="M 13.0,14.0 L 20.8,15.1 L 28.2,16.1 L 35.5,17.1 L 42.4,18.1 L 49.1,18.9 L 55.5,19.7 L 61.6,20.4 L 67.4,20.9 L 72.9,21.3 L 78.1,21.6 L 82.9,21.8 L 87.5,21.8 L 91.7,21.8 L 95.6,21.5 L 99.2,21.2 L 102.4,20.8 L 105.4,20.3 L 108.0,19.8 L 110.3,19.2 L 112.3,18.5 L 114.2,17.9 L 115.8,17.4 L 117.4,17.0 L 118.1,16.3 L 117.5,14.4 L 116.3,12.5 L 114.6,10.7 L 112.4,9.1 L 109.8,7.6 L 106.9,6.3 L 103.7,5.2 L 100.2,4.3 L 96.3,3.7 L 92.2,3.2 L 87.7,3.0 L 83.0,2.9 L 78.0,3.1 L 72.7,3.5 L 67.2,4.0 L 61.3,4.7 L 55.2,5.6 L 48.9,6.6 L 42.2,7.8 L 35.3,9.0 L 28.1,10.3 L 20.7,11.6 L 13.0,13.0 Z" fill="black" stroke="none"/>
<path d="M 124.2,53.9 L 121.3,53.5 L 118.3,53.2 L 115.2,52.9 L 112.1,52.6 L 108.8,52.4 L 105.6,52.3 L 102.2,52.2 L 98.8,52.3 L 95.4,52.5 L 91.9,52.7 L 88.4,53.1 L 84.8,53.7 L 81.2,54.3 L 77.6,55.1 L 73.9,55.9 L 70.1,56.9 L 66.3,58.0 L 62.5,59.1 L 58.6,60.2 L 54.7,61.4 L 50.7,62.5 L 46.7,63.7 L 42.6,64.7 L 42.5,65.7 L 46.6,67.1 L 50.6,68.4 L 54.8,69.5 L 58.9,70.5 L 63.1,71.4 L 67.2,72.0 L 71.4,72.5 L 75.5,72.8 L 79.5,72.9 L 83.5,72.7 L 87.5,72.4 L 91.3,71.8 L 95.0,71.0 L 98.7,70.0 L 102.2,68.9 L 105.5,67.5 L 108.7,66.0 L 111.8,64.4 L 114.7,62.6 L 117.4,60.7 L 120.0,58.8 L 122.3,56.8 L 124.5,54.8 Z" fill="black" stroke="none"/>
<path d="M 116.6,99.6 L 112.4,101.3 L 108.5,102.8 L 105.0,103.9 L 101.8,104.9 L 98.8,105.6 L 96.2,106.2 L 93.8,106.6 L 91.7,106.8 L 89.8,107.1 L 88.0,107.3 L 86.2,107.5 L 84.3,107.8 L 82.2,108.1 L 79.8,108.6 L 77.1,109.1 L 74.0,109.6 L 70.5,110.2 L 66.6,110.8 L 62.2,111.4 L 57.4,112.0 L 52.2,112.7 L 46.4,113.3 L 40.1,114.0 L 40.0,115.0 L 46.1,116.8 L 51.6,118.5 L 56.7,120.1 L 61.3,121.7 L 65.6,123.0 L 69.6,124.2 L 73.3,125.2 L 76.8,126.0 L 80.2,126.5 L 83.4,126.7 L 86.6,126.5 L 89.7,126.0 L 92.8,125.2 L 95.6,124.0 L 98.3,122.4 L 100.8,120.6 L 103.2,118.4 L 105.4,116.0 L 107.6,113.4 L 109.8,110.5 L 112.1,107.4 L 114.5,104.0 L 117.2,100.4 Z" fill="black" stroke="none"/>
</g>
</g>
</svg></g>
</svg>