<svg width="800" height="600" xmlns="http://www.w3.org/2000/svg">

 <g>
  <title>Layer 1</title>
  <path d="m161,243.5c0,0 -0.06586,-0.14429 2,-1c2.92157,-1.21014 9.14183,-3.76141 16,-8c6.13412,-3.79111 11,-8 15,-11c4,-3 5.69255,-5.186 7,-7c1.65381,-2.29454 3,-3 5,-5c3,-3 5,-7 8,-11c3,-4 5.75531,-8.132 8,-12c1.80972,-3.11848 3,-6 4,-7c1,-1 1.29289,-1.29289 2,-2c0.70711,-0.70711 0,-1 0,-1c-1,1 -1,1 -1,2c0,0 0,1 0,1c0,1 0,3 0,6c0,4 0,9 0,14c0,5 0,9 0,13c0,4 0.49756,6.9258 1,12c0.59123,5.97079 1.48169,11.87997 3,19c1.47472,6.91557 2.49829,13.93796 3,20c0.49489,5.97955 0.38908,12.03748 1,17c0.50377,4.09222 1.49829,9.93796 2,16c0.4124,4.98297 -0.56711,12.02011 0,20c0.50127,7.05328 1.49873,13.94672 2,21c0.35445,4.98743 0.49623,8.90778 1,13c0.36655,2.97751 0,6 0,9c0,3 -0.78986,5.07843 -2,8c-0.85571,2.06586 -3,4 -5,6c-2,2 -5.90779,3.49622 -10,4c-4.96254,0.61093 -9,0 -11,-1c-2,-1 -3,-1 -3,-1c0,-1 0,-1 0,-3c0,-2 0,-7 0,-12c0,-7 0.91869,-15.01208 2,-22c0.93018,-6.01123 1.79393,-11.08743 4,-16c1.83203,-4.07965 3.41885,-7.41885 5,-9c1.58115,-1.58115 2.69344,-2.4588 4,-3c0.92387,-0.38269 2.797,-1.2565 4,-2c2.68999,-1.66251 5.132,-2.75531 9,-5c3.11848,-1.80972 7.37201,-3.3851 11,-6c3.4418,-2.48071 6.16119,-4.7464 11,-8c4.14923,-2.78995 8,-5 11,-8c5,-5 9.54901,-10.60641 13,-16c3.61542,-5.65054 6.3186,-11.851 9,-18c3.41519,-7.83176 7.3476,-16.89149 10,-26c2.30554,-7.91736 4.51962,-17.07481 6,-25c1.51416,-8.106 3.49622,-14.90779 4,-19c0.24435,-1.98502 0,-4 0,-4c0,0 0.09717,-0.2242 -2,-1c-3.867,-1.4305 -7.86829,-2.28859 -12,-4c-2.92157,-1.21014 -5.90778,-1.49623 -10,-2c-1.98502,-0.24437 -3,0 -4,1c-2,2 -3.44839,4.80565 -5,9c-1.43048,3.867 -2.50732,9.02434 -3,14c-0.50244,5.0742 -1,11 -1,18c0,6 0,12 0,18c0,5 0.49622,8.90779 1,13c0.36655,2.97752 0.77023,6.02675 1,7c0.51373,2.17625 1.71411,4.21167 4,7c3.5864,4.37469 8,9 12,14c4,5 9.23172,9.77856 14,15c5.26675,5.76727 9.64838,11.42654 14,17c3.58844,4.59598 4.69254,8.186 6,10c0.8269,1.14728 1,2 1,3c0,1 0,3 0,5c0,3 -1.19028,5.88153 -3,9c-2.24469,3.86798 -5,8 -10,13c-4,4 -7.39099,7.7695 -11,10c-2.69,1.66251 -5,2 -6,2c-2,0 -3.07611,0.38269 -4,0c-1.30655,-0.5412 -1,-1 -2,-2c0,0 -1,-1 -1,-1c0,-1 -1,-1 -1,-3c0,-1 -1,-3 -1,-7c0,-3 -0.48874,-7.02997 0,-11c0.50378,-4.09222 1.33197,-8.22937 3,-12c1.45865,-3.29733 4.75531,-7.13202 7,-11c1.80972,-3.11847 4.71411,-6.21167 7,-9c3.5864,-4.37469 7.36774,-8.56393 11,-12c2.61926,-2.47778 6,-5 9,-8c3,-3 7.46448,-5.46448 11,-9c3.53552,-3.53552 7,-8 11,-12c4,-4 8.14386,-8.90654 12,-15c3.1181,-4.92722 6.40894,-10.77637 9,-16c2.39297,-4.82428 3.78986,-9.07843 5,-12c0.85571,-2.06586 1.49347,-3.87856 2,-7c0.64072,-3.94835 -0.84888,-11.04659 -4,-21c-2.86334,-9.0444 -4.56952,-15.133 -6,-19c-0.77579,-2.09717 -1,-2 -2,-3c0,0 -1.02249,0.36655 -4,0c-4.09222,-0.50377 -8,-1 -12,-1c-3,0 -4.14935,0.47427 -5,1c-1.9021,1.17557 -2,5 -3,9c-1,4 -1,8 -1,13c0,4 -0.29562,9.0146 0,12c0.50244,5.0742 1.73145,9.07689 3,13c1.65686,5.12395 3.41589,9.76108 5,13c1.38934,2.84073 1.71411,6.21167 4,9c2.68979,3.28101 5.38074,5.52222 8,8c3.63226,3.43608 6.22272,6.72398 10,10c4.2735,3.70638 7.22272,7.724 11,11c3.20511,2.77979 5,5 6,7c1,2 2.14774,4.94342 4,10c2.17538,5.93866 3.90338,13.01691 5,19c0.91925,5.01547 2.15823,8.87994 2,13c-0.12137,3.15994 -1.54135,5.70267 -3,9c-1.66803,3.77063 -3.31021,7.71899 -6,11c-2.28589,2.78833 -4.43546,6.95914 -9,9c-4.65494,2.08127 -9,1 -13,1c-4,0 -5.82376,-1.48627 -8,-2c-0.97324,-0.22977 -1,-1 -2,-2c-2,-2 -4.44839,-5.80566 -6,-10c-1.43048,-3.867 -2.49347,-7.87857 -3,-11c-0.48056,-2.96127 -0.43048,-6.133 1,-10c1.55161,-4.19434 5.7265,-8.29361 10,-12c3.77728,-3.276 7.85077,-6.21005 12,-9c4.83881,-3.2536 9.50424,-5.03552 14,-8c4.72256,-3.11404 8.82285,-7.18536 13,-11c5.76727,-5.26675 12,-11 18,-18c6,-7 11.14859,-15.94585 14,-24c2.11072,-5.96196 4,-12 5,-17c1,-5 1.49347,-8.87856 2,-12c0.48056,-2.96126 0,-5 0,-7c0,-2 -0.28857,-4.86829 -2,-9c-2.42029,-5.84312 -3.75531,-10.132 -6,-14c-1.80972,-3.11848 -3,-4 -5,-4c-1,0 -2,0 -3,0c-1,0 -2,0 -3,1c-1,1 -3.22421,3.90283 -4,6c-1.43048,3.867 -2.11588,6.96384 -3,10c-1.15277,3.95868 -1,7 -1,10c0,4 -0.48056,7.03874 0,10c0.50653,3.12144 2,7 3,10c1,3 2.7464,6.16119 6,11c2.78995,4.14925 6.22055,7.83128 10,13c2.12817,2.91046 4.71411,6.21167 7,9c0.89661,1.09367 2,3 4,5c2,2 4.71899,5.31021 8,8c2.78833,2.28587 6.37134,5.74673 9,10c2.35114,3.80423 4.33197,9.22937 6,13c1.45865,3.29733 3.49347,5.87857 4,9c0.48056,2.96127 1,6 1,10c0,5 0,9 -1,13c-1,4 -2.71411,8.21167 -5,11c-2.68979,3.28101 -6.71201,6.98163 -12,8c-4.90979,0.94553 -8,0 -10,0c-1,0 -1.85272,-1.1731 -3,-2c-1.814,-1.30746 -3,-3 -5,-6c-2,-3 -4.49756,-6.92578 -5,-12c-0.49268,-4.97568 -0.94553,-10.09021 0,-15c1.01837,-5.28799 5.19409,-10.88855 8,-16c2.15204,-3.92029 4.93814,-8.07858 10,-12c3.95267,-3.0621 8,-5 12,-7c4,-2 8.40402,-4.41156 13,-8c4.45877,-3.48129 7.72961,-8.22885 12,-13c3.77267,-4.21509 6.43289,-7.80243 9,-14c2.42029,-5.84312 2.88135,-11.02521 4,-16c0.90457,-4.02266 1,-9 1,-14c0,-5 -0.82462,-11.06134 -3,-17c-1.85226,-5.05659 -4.95517,-8.54915 -6,-12c-0.57956,-1.91418 -2.02676,-2.77025 -3,-3c-2.17624,-0.51375 -3,-1 -5,-1c-2,0 -5,0 -6,0c-2,0 -3,0 -4,0c-1,0 -1,0 -1,2c0,5 0,12 0,18c0,6 0.49347,9.87856 1,13c0.8009,4.93544 1,10 2,17c1,7 1.80615,13.03044 3,20c0.8609,5.02582 2,10 3,15c1,5 1.88135,10.02521 3,15c0.90457,4.02264 2,8 2,12c0,4 0,8 0,12c0,3 0,6 0,8c0,3 0,6 0,9c0,3 1,6 2,10c1,4 1.49756,7.92578 2,13c0.39417,3.98053 1.49622,6.90778 2,11c0.36655,2.97751 1.49622,5.90778 2,10c0.48874,3.97003 0.5405,6.0535 1,8c0.51373,2.17624 1.48627,3.82376 2,6c0.4595,1.9465 1,3 1,4c0,0 -0.38269,-0.07611 0,-1c0.5412,-1.30655 1.73145,-4.0769 3,-8c1.65686,-5.12396 5.62485,-11.19885 10,-19c4.61472,-8.22827 9.34454,-15.74283 13,-21c3.3288,-4.78738 5.33746,-8.31 7,-11c1.487,-2.40601 2.69257,-3.186 4,-5c0.8269,-1.14728 1.29291,-1.29291 2,-2c0.70709,-0.70709 0,-1 0,-2l0,0l0,0" id="svg_1" stroke="#000" fill="none"/>
 </g>
</svg>