<svg xmlns="http://www.w3.org/2000/svg" width="640" height="128" viewBox="0 0 640 128">
<rect width="640" height="128" fill="white"/>
<g transform="rotate(180 320.0 64.0)">
<g transform="translate(0 0)">
  <rect width="256" height="128" fill="white"/>
<path d="M 39.22,109.68 C 82.15,114.18 94.35,114.13 93.47,95.85" fill="none" stroke="black" stroke-width="4.48" stroke-linecap="round" stroke-linejoin="round"/>
<path d="M 93.24,67.30 C 94.82,35.73 93.60,15.74 87.97,5.27" fill="none" stroke="black" stroke-width="4.48" stroke-linecap="round" stroke-linejoin="round"/>
<path d="M 85.58,71.82 C 97.00,69.08 89.78,80.16 94.45,91.50" fill="none" stroke="black" stroke-width="4.48" stroke-linecap="round" stroke-linejoin="round"/>
<path d="M 90.64,59.21 C 90.70,59.20 90.69,59.24 90.61,59.43" fill="none" stroke="black" stroke-width="4.48" stroke-linecap="round" stroke-linejoin="round"/>
<path d="M 92.78,60.75 C 83.09,68.79 85.27,52.21 42.54,77.72" fill="none" stroke="black" stroke-width="4.48" stroke-linecap="round" stroke-linejoin="round"/>
<path d="M 93.45,119.97 C 58.76,122.06 62.77,121.78 31.06,117.88" fill="none" stroke="black" stroke-width="4.48" stroke-linecap="round" stroke-linejoin="round"/>
<path d="M 179.61,62.88 C 180.98,64.85 187.81,66.50 197.23,69.19" fill="none" stroke="black" stroke-width="4.48" stroke-linecap="round" stroke-linejoin="round"/>
<path d="M 228.06,86.28 C 191.97,62.08 199.96,60.06 179.70,55.45" fill="none" stroke="black" stroke-width="4.48" stroke-linecap="round" stroke-linejoin="round"/>
<path d="M 158.71,117.52 C 169.33,32.53 127.22,0.00 214.85,6.18" fill="none" stroke="black" stroke-width="4.48" stroke-linecap="round" stroke-linejoin="round"/>
<path d="M 226.32,15.43 C 212.34,19.15 176.27,6.72 160.87,23.65" fill="none" stroke="black" stroke-width="4.48" stroke-linecap="round" stroke-linejoin="round"/>
<path d="M 157.87,39.36 C 162.63,53.18 170.73,57.74 182.09,63.43" fill="none" stroke="black" stroke-width="4.48" stroke-linecap="round" stroke-linejoin="round"/>
<path d="M 223.62,102.95 C 216.13,126.79 166.06,126.23 180.71,110.10" fill="none" stroke="black" stroke-width="4.48" stroke-linecap="round" stroke-linejoin="round"/>
</g>
<g transform="translate(256 0)">
  <rect width="128" height="128" fill="white"/>
<path d="M 102.82,26.38 C 68.27,30.15 29.53,5.15 27.38,40.42" fill="none" stroke="black" stroke-width="8.96" stroke-linecap="round" stroke-linejoin="round"/>
<path d="M 28.19,33.23 C 27.67,65.47 100.60,55.26 101.13,91.91" fill="none" stroke="black" stroke-width="8.96" stroke-linecap="round" stroke-linejoin="round"/>
<path d="M 98.05,86.54 C 99.39,124.50 61.90,99.14 29.41,105.93" fill="none" stroke="black" stroke-width="8.96" stroke-linecap="round" stroke-linejoin="round"/>
<path d="M 100.62,87.58 C 98.47,122.85 59.73,97.85 25.18,101.62" fill="none" stroke="black" stroke-width="8.96" stroke-linecap="round" stroke-linejoin="round"/>
<path d="M 26.87,36.09 C 27.40,72.74 100.33,62.53 99.81,94.77" fill="none" stroke="black" stroke-width="8.96" stroke-linecap="round" stroke-linejoin="round"/>
<path d="M 98.59,22.07 C 66.10,28.86 28.61,3.50 29.95,41.46" fill="none" stroke="black" stroke-width="8.96" stroke-linecap="round" stroke-linejoin="round"/>
</g>
<g transform="translate(384 0) rotate(180 128.0 64.0)">
  <rect width="256" height="128" fill="white"/>
<path d="M 39.22,109.68 C 82.15,114.18 94.35,114.13 93.47,95.85" fill="none" stroke="black" stroke-width="4.48" stroke-linecap="round" stroke-linejoin="round"/>
<path d="M 93.24,67.30 C 94.82,35.73 93.60,15.74 87.97,5.27" fill="none" stroke="black" stroke-width="4.48" stroke-linecap="round" stroke-linejoin="round"/>
<path d="M 85.58,71.82 C 97.00,69.08 89.78,80.16 94.45,91.50" fill="none" stroke="black" stroke-width="4.48" stroke-linecap="round" stroke-linejoin="round"/>
<path d="M 90.64,59.21 C 90.70,59.20 90.69,59.24 90.61,59.43" fill="none" stroke="black" stroke-width="4.48" stroke-linecap="round" stroke-linejoin="round"/>
<path d="M 92.78,60.75 C 83.09,68.79 85.27,52.21 42.54,77.72" fill="none" stroke="black" stroke-width="4.48" stroke-linecap="round" stroke-linejoin="round"/>
<path d="M 93.45,119.97 C 58.76,122.06 62.77,121.78 31.06,117.88" fill="none" stroke="black" stroke-width="4.48" stroke-linecap="round" stroke-linejoin="round"/>
<path d="M 179.61,62.88 C 180.98,64.85 187.81,66.50 197.23,69.19" fill="none" stroke="black" stroke-width="4.48" stroke-linecap="round" stroke-linejoin="round"/>
<path d="M 228.06,86.28 C 191.97,62.08 199.96,60.06 179.70,55.45" fill="none" stroke="black" stroke-width="4.48" stroke-linecap="round" stroke-linejoin="round"/>
<path d="M 158.71,117.52 C 169.33,32.53 127.22,0.00 214.85,6.18" fill="none" stroke="black" stroke-width="4.48" stroke-linecap="round" stroke-linejoin="round"/>
<path d="M 226.32,15.43 C 212.34,19.15 176.27,6.72 160.87,23.65" fill="none" stroke="black" stroke-width="4.48" stroke-linecap="round" stroke-linejoin="round"/>
<path d="M 157.87,39.36 C 162.63,53.18 170.73,57.74 182.09,63.43" fill="none" stroke="black" stroke-width="4.48" stroke-linecap="round" stroke-linejoin="round"/>
<path d="M 223.62,102.95 C 216.13,126.79 166.06,126.23 180.71,110.10" fill="none" stroke="black" stroke-width="4.48" stroke-linecap="round" stroke-linejoin="round"/>
</g>
</g>
</svg>