<svg xmlns="http://www.w3.org/2000/svg" width="640" height="128" viewBox="0 0 640 128">
<rect width="640" height="128" fill="white"/>
<g transform="translate(0 0)">
  <rect width="128" height="128" fill="white"/>
<path d="M 34.29,17.62 C 127.60,0.01 127.60,33.32 46.76,40.99" fill="none" stroke="black" stroke-width="8.96" stroke-linecap="round" stroke-linejoin="round"/>
<path d="M 46.76,40.99 C 13.88,65.89 84.19,77.04 116.05,43.37" fill="none" stroke="black" stroke-width="8.96" stroke-linecap="round" stroke-linejoin="round"/>
<path d="M 116.05,43.37 C 52.20,116.54 108.64,123.13 118.36,73.44" fill="none" stroke="black" stroke-width="8.96" stroke-linecap="round" stroke-linejoin="round"/>
<path d="M 118.36,73.44 C 101.02,116.54 91.34,123.21 89.44,108.85" fill="none" stroke="black" stroke-width="8.96" stroke-linecap="round" stroke-linejoin="round"/>
<path d="M 89.44,108.85 C 87.20,127.94 105.63,106.81 28.39,115.23" fill="none" stroke="black" stroke-width="8.96" stroke-linecap="round" stroke-linejoin="round"/>
<path d="M 28.39,115.23 C 0.28,82.91 2.38,92.64 66.51,88.26" fill="none" stroke="black" stroke-width="8.96" stroke-linecap="round" stroke-linejoin="round"/>
</g>
<g transform="translate(128 0)">
  <rect width="128" height="128" fill="white"/>
<path d="M 105.15,69.40 C 49.58,45.26 127.52,0.59 114.73,18.47" fill="none" stroke="black" stroke-width="8.96" stroke-linecap="round" stroke-linejoin="round"/>
<path d="M 114.73,18.47 C 9.37,1.39 2.22,23.76 20.96,36.33" fill="none" stroke="black" stroke-width="8.96" stroke-linecap="round" stroke-linejoin="round"/>
<path d="M 20.96,36.33 C 102.43,25.59 127.57,76.78 11.03,55.03" fill="none" stroke="black" stroke-width="8.96" stroke-linecap="round" stroke-linejoin="round"/>
<path d="M 11.03,55.03 C 16.13,123.33 83.32,45.41 111.71,115.44" fill="none" stroke="black" stroke-width="8.96" stroke-linecap="round" stroke-linejoin="round"/>
<path d="M 111.71,115.44 C 127.72,109.89 90.22,111.23 24.95,111.43" fill="none" stroke="black" stroke-width="8.96" stroke-linecap="round" stroke-linejoin="round"/>
<path d="M 24.95,111.43 C 59.76,109.00 0.15,121.97 12.74,104.26" fill="none" stroke="black" stroke-width="8.96" stroke-linecap="round" stroke-linejoin="round"/>
</g>
<g transform="translate(256 0)">
  <rect width="128" height="128" fill="white"/>
<path d="M 102.18,23.34 C 70.19,31.79 31.01,3.15 29.28,38.40" fill="none" stroke="black" stroke-width="8.96" stroke-linecap="round" stroke-linejoin="round"/>
<path d="M 30.10,38.09 C 26.31,68.15 98.27,60.40 99.49,87.70" fill="none" stroke="black" stroke-width="8.96" stroke-linecap="round" stroke-linejoin="round"/>
<path d="M 97.63,88.35 C 98.99,121.03 57.49,98.64 25.24,100.15" fill="none" stroke="black" stroke-width="8.96" stroke-linecap="round" stroke-linejoin="round"/>
<path d="M 98.72,89.60 C 96.99,124.85 57.81,96.21 25.82,104.66" fill="none" stroke="black" stroke-width="8.96" stroke-linecap="round" stroke-linejoin="round"/>
<path d="M 28.51,40.30 C 29.73,67.60 101.69,59.85 97.90,89.91" fill="none" stroke="black" stroke-width="8.96" stroke-linecap="round" stroke-linejoin="round"/>
<path d="M 102.76,27.85 C 70.51,29.36 29.01,6.97 30.37,39.65" fill="none" stroke="black" stroke-width="8.96" stroke-linecap="round" stroke-linejoin="round"/>
</g>
<g transform="translate(384 0) rotate(180 64.0 64.0)">
  <rect width="128" height="128" fill="white"/>
<path d="M 105.15,69.40 C 49.58,45.26 127.52,0.59 114.73,18.47" fill="none" stroke="black" stroke-width="8.96" stroke-linecap="round" stroke-linejoin="round"/>
<path d="M 114.73,18.47 C 9.37,1.39 2.22,23.76 20.96,36.33" fill="none" stroke="black" stroke-width="8.96" stroke-linecap="round" stroke-linejoin="round"/>
<path d="M 20.96,36.33 C 102.43,25.59 127.57,76.78 11.03,55.03" fill="none" stroke="black" stroke-width="8.96" stroke-linecap="round" stroke-linejoin="round"/>
<path d="M 11.03,55.03 C 16.13,123.33 83.32,45.41 111.71,115.44" fill="none" stroke="black" stroke-width="8.96" stroke-linecap="round" stroke-linejoin="round"/>
<path d="M 111.71,115.44 C 127.72,109.89 90.22,111.23 24.95,111.43" fill="none" stroke="black" stroke-width="8.96" stroke-linecap="round" stroke-linejoin="round"/>
<path d="M 24.95,111.43 C 59.76,109.00 0.15,121.97 12.74,104.26" fill="none" stroke="black" stroke-width="8.96" stroke-linecap="round" stroke-linejoin="round"/>
</g>
<g transform="translate(512 0) rotate(180 64.0 64.0)">
  <rect width="128" height="128" fill="white"/>
<path d="M 34.29,17.62 C 127.60,0.01 127.60,33.32 46.76,40.99" fill="none" stroke="black" stroke-width="8.96" stroke-linecap="round" stroke-linejoin="round"/>
<path d="M 46.76,40.99 C 13.88,65.89 84.19,77.04 116.05,43.37" fill="none" stroke="black" stroke-width="8.96" stroke-linecap="round" stroke-linejoin="round"/>
<path d="M 116.05,43.37 C 52.20,116.54 108.64,123.13 118.36,73.44" fill="none" stroke="black" stroke-width="8.96" stroke-linecap="round" stroke-linejoin="round"/>
<path d="M 118.36,73.44 C 101.02,116.54 91.34,123.21 89.44,108.85" fill="none" stroke="black" stroke-width="8.96" stroke-linecap="round" stroke-linejoin="round"/>
<path d="M 89.44,108.85 C 87.20,127.94 105.63,106.81 28.39,115.23" fill="none" stroke="black" stroke-width="8.96" stroke-linecap="round" stroke-linejoin="round"/>
<path d="M 28.39,115.23 C 0.28,82.91 2.38,92.64 66.51,88.26" fill="none" stroke="black" stroke-width="8.96" stroke-linecap="round" stroke-linejoin="round"/>
</g>
</svg>