<svg xmlns="http://www.w3.org/2000/svg" width="640" height="128" viewBox="0 0 640 128">
<rect width="640" height="128" fill="white"/>
<path d="M 45.56,14.52 C 259.04,55.11 127.14,57.96 110.01,60.52" fill="none" stroke="black" stroke-width="8.96" stroke-linecap="round" stroke-linejoin="round"/>
<path d="M 414.72,97.51 C 137.24,68.60 201.91,97.32 1.66,78.94" fill="none" stroke="black" stroke-width="8.96" stroke-linecap="round" stroke-linejoin="round"/>
<path d="M 3.64,103.62 C 83.51,127.42 271.76,91.16 78.95,87.46" fill="none" stroke="black" stroke-width="8.96" stroke-linecap="round" stroke-linejoin="round"/>
<path d="M 107.28,43.52 C 283.79,8.13 179.93,75.89 255.83,98.08" fill="none" stroke="black" stroke-width="8.96" stroke-linecap="round" stroke-linejoin="round"/>
<path d="M 15.59,14.00 C 32.86,22.99 100.49,0.96 204.62,22.23" fill="none" stroke="black" stroke-width="8.96" stroke-linecap="round" stroke-linejoin="round"/>
<path d="M 167.66,110.87 C 262.60,117.79 232.17,111.78 171.36,108.09" fill="none" stroke="black" stroke-width="8.96" stroke-linecap="round" stroke-linejoin="round"/>
<path d="M 397.95,41.11 C 496.18,60.11 301.05,19.83 138.94,39.06" fill="none" stroke="black" stroke-width="8.96" stroke-linecap="round" stroke-linejoin="round"/>
<path d="M 235.92,60.80 C 103.53,62.62 227.85,48.77 521.31,81.77" fill="none" stroke="black" stroke-width="8.96" stroke-linecap="round" stroke-linejoin="round"/>
<path d="M 205.66,118.20 C 424.47,113.46 387.10,97.31 354.12,92.73" fill="none" stroke="black" stroke-width="8.96" stroke-linecap="round" stroke-linejoin="round"/>
<path d="M 529.99,67.48 C 512.86,70.04 380.96,72.89 594.44,113.48" fill="none" stroke="black" stroke-width="8.96" stroke-linecap="round" stroke-linejoin="round"/>
<path d="M 638.34,49.06 C 438.09,30.68 502.76,59.40 225.28,30.49" fill="none" stroke="black" stroke-width="8.96" stroke-linecap="round" stroke-linejoin="round"/>
<path d="M 561.05,40.54 C 368.24,36.84 556.49,0.58 636.36,24.38" fill="none" stroke="black" stroke-width="8.96" stroke-linecap="round" stroke-linejoin="round"/>
<path d="M 384.17,29.92 C 460.07,52.11 356.21,119.87 532.72,84.48" fill="none" stroke="black" stroke-width="8.96" stroke-linecap="round" stroke-linejoin="round"/>
<path d="M 435.38,105.77 C 539.51,127.04 607.14,105.01 624.41,114.00" fill="none" stroke="black" stroke-width="8.96" stroke-linecap="round" stroke-linejoin="round"/>
<path d="M 468.64,19.91 C 407.83,16.22 377.40,10.21 472.34,17.13" fill="none" stroke="black" stroke-width="8.96" stroke-linecap="round" stroke-linejoin="round"/>
<path d="M 501.06,88.94 C 338.95,108.17 143.82,67.89 242.05,86.89" fill="none" stroke="black" stroke-width="8.96" stroke-linecap="round" stroke-linejoin="round"/>
<path d="M 118.69,46.23 C 412.15,79.23 536.47,65.38 404.08,67.20" fill="none" stroke="black" stroke-width="8.96" stroke-linecap="round" stroke-linejoin="round"/>
<path d="M 285.88,35.27 C 252.90,30.69 215.53,14.54 434.34,9.80" fill="none" stroke="black" stroke-width="8.96" stroke-linecap="round" stroke-linejoin="round"/>
</svg>